<mxfile host="65bd71144e">
    <diagram id="Ca1_OZtx4Qbm0JFTWO8Z" name="Table">
        <mxGraphModel dx="719" dy="652" grid="1" gridSize="10" guides="1" tooltips="1" connect="1" arrows="1" fold="1" page="1" pageScale="1" pageWidth="827" pageHeight="1169" math="0" shadow="0">
            <root>
                <mxCell id="0"/>
                <mxCell id="1" parent="0"/>
                <mxCell id="29" value="" style="rounded=1;whiteSpace=wrap;html=1;fillColor=none;dashed=1;" parent="1" vertex="1">
                    <mxGeometry x="100" y="140" width="270" height="80" as="geometry"/>
                </mxCell>
                <mxCell id="2" value="ID" style="rounded=0;whiteSpace=wrap;html=1;" parent="1" vertex="1">
                    <mxGeometry x="120" y="160" width="40" height="40" as="geometry"/>
                </mxCell>
                <mxCell id="3" value="输入&lt;div&gt;列表&lt;/div&gt;" style="rounded=0;whiteSpace=wrap;html=1;" parent="1" vertex="1">
                    <mxGeometry x="160" y="160" width="40" height="40" as="geometry"/>
                </mxCell>
                <mxCell id="16" style="edgeStyle=none;html=1;exitX=0.5;exitY=0;exitDx=0;exitDy=0;entryX=0;entryY=0.5;entryDx=0;entryDy=0;endArrow=none;endFill=0;" parent="1" source="21" target="13" edge="1">
                    <mxGeometry relative="1" as="geometry">
                        <Array as="points">
                            <mxPoint x="200" y="100"/>
                            <mxPoint x="220" y="100"/>
                        </Array>
                    </mxGeometry>
                </mxCell>
                <mxCell id="4" value="输出" style="rounded=0;whiteSpace=wrap;html=1;" parent="1" vertex="1">
                    <mxGeometry x="200" y="160" width="40" height="40" as="geometry"/>
                </mxCell>
                <mxCell id="5" value="连续&lt;div&gt;标志&lt;/div&gt;" style="rounded=0;whiteSpace=wrap;html=1;" parent="1" vertex="1">
                    <mxGeometry x="240" y="160" width="40" height="40" as="geometry"/>
                </mxCell>
                <mxCell id="14" style="edgeStyle=none;html=1;exitX=1;exitY=0.5;exitDx=0;exitDy=0;endArrow=none;endFill=0;" parent="1" source="7" target="13" edge="1">
                    <mxGeometry relative="1" as="geometry"/>
                </mxCell>
                <mxCell id="7" value="私钥" style="rounded=0;whiteSpace=wrap;html=1;fillColor=#CCCCCC;" parent="1" vertex="1">
                    <mxGeometry x="120" y="80" width="40" height="40" as="geometry"/>
                </mxCell>
                <mxCell id="8" value="签名" style="rounded=0;whiteSpace=wrap;html=1;" parent="1" vertex="1">
                    <mxGeometry x="280" y="160" width="40" height="40" as="geometry"/>
                </mxCell>
                <mxCell id="20" style="edgeStyle=none;html=1;exitX=1;exitY=0.5;exitDx=0;exitDy=0;entryX=0.5;entryY=0;entryDx=0;entryDy=0;" parent="1" source="13" target="8" edge="1">
                    <mxGeometry relative="1" as="geometry">
                        <Array as="points">
                            <mxPoint x="300" y="100"/>
                        </Array>
                    </mxGeometry>
                </mxCell>
                <mxCell id="30" value="生成" style="edgeLabel;html=1;align=center;verticalAlign=middle;resizable=0;points=[];" parent="20" vertex="1" connectable="0">
                    <mxGeometry x="-0.6" y="-1" relative="1" as="geometry">
                        <mxPoint x="4" y="-11" as="offset"/>
                    </mxGeometry>
                </mxCell>
                <mxCell id="13" value="签名&lt;div&gt;算法&lt;/div&gt;" style="rounded=1;whiteSpace=wrap;html=1;" parent="1" vertex="1">
                    <mxGeometry x="240" y="80" width="40" height="40" as="geometry"/>
                </mxCell>
                <mxCell id="21" value="" style="rounded=1;whiteSpace=wrap;html=1;fillColor=none;dashed=1;" parent="1" vertex="1">
                    <mxGeometry x="110" y="150" width="180" height="60" as="geometry"/>
                </mxCell>
                <mxCell id="25" value="" style="shape=cylinder3;whiteSpace=wrap;html=1;boundedLbl=1;backgroundOutline=1;size=15;" parent="1" vertex="1">
                    <mxGeometry x="436.19" y="110" width="80" height="100" as="geometry"/>
                </mxCell>
                <mxCell id="26" value="" style="rounded=0;whiteSpace=wrap;html=1;" parent="1" vertex="1">
                    <mxGeometry x="448.69" y="150" width="55" height="40" as="geometry"/>
                </mxCell>
                <mxCell id="27" value="" style="rounded=0;whiteSpace=wrap;html=1;fillColor=#E6E6E6;" parent="1" vertex="1">
                    <mxGeometry x="448.69" y="165" width="55" height="10" as="geometry"/>
                </mxCell>
                <mxCell id="31" style="edgeStyle=none;html=1;exitX=1;exitY=0.5;exitDx=0;exitDy=0;entryX=0;entryY=0.75;entryDx=0;entryDy=0;" parent="1" source="29" target="27" edge="1">
                    <mxGeometry relative="1" as="geometry"/>
                </mxCell>
                <mxCell id="35" value="写入" style="edgeLabel;html=1;align=center;verticalAlign=middle;resizable=0;points=[];" parent="31" vertex="1" connectable="0">
                    <mxGeometry x="0.1137" y="-1" relative="1" as="geometry">
                        <mxPoint y="-12" as="offset"/>
                    </mxGeometry>
                </mxCell>
                <mxCell id="36" value="0" style="rounded=0;whiteSpace=wrap;html=1;" parent="1" vertex="1">
                    <mxGeometry x="320" y="160" width="40" height="40" as="geometry"/>
                </mxCell>
                <mxCell id="38" value="交易表" style="text;html=1;align=center;verticalAlign=middle;resizable=0;points=[];autosize=1;strokeColor=none;fillColor=none;" parent="1" vertex="1">
                    <mxGeometry x="446.19" y="230" width="60" height="30" as="geometry"/>
                </mxCell>
                <mxCell id="39" value="交易记录" style="text;html=1;align=center;verticalAlign=middle;resizable=0;points=[];autosize=1;strokeColor=none;fillColor=none;" parent="1" vertex="1">
                    <mxGeometry x="200" y="230" width="70" height="30" as="geometry"/>
                </mxCell>
            </root>
        </mxGraphModel>
    </diagram>
    <diagram id="5dc5zjMOFa0Du7POPWM9" name="tx2">
        <mxGraphModel dx="789" dy="652" grid="1" gridSize="10" guides="1" tooltips="1" connect="1" arrows="1" fold="1" page="1" pageScale="1" pageWidth="827" pageHeight="1169" math="0" shadow="0">
            <root>
                <mxCell id="0"/>
                <mxCell id="1" parent="0"/>
                <mxCell id="R_clLeRJ_Ar4vMEyaZgw-1" style="edgeStyle=none;html=1;exitX=1;exitY=0.5;exitDx=0;exitDy=0;entryX=0;entryY=0.5;entryDx=0;entryDy=0;" parent="1" source="gRlhBFTV5GNe4UzuhLn--3" target="gRlhBFTV5GNe4UzuhLn--7" edge="1">
                    <mxGeometry relative="1" as="geometry"/>
                </mxCell>
                <mxCell id="gRlhBFTV5GNe4UzuhLn--3" value="记录#1&lt;div&gt;&lt;br&gt;&lt;/div&gt;" style="rounded=1;whiteSpace=wrap;html=1;verticalAlign=top;fillColor=#E6E6E6;" parent="1" vertex="1">
                    <mxGeometry x="160" y="120" width="170" height="80" as="geometry"/>
                </mxCell>
                <mxCell id="gRlhBFTV5GNe4UzuhLn--4" value="" style="endArrow=classic;html=1;entryX=0;entryY=0.5;entryDx=0;entryDy=0;" parent="1" target="gRlhBFTV5GNe4UzuhLn--3" edge="1">
                    <mxGeometry width="50" height="50" relative="1" as="geometry">
                        <mxPoint x="80" y="160" as="sourcePoint"/>
                        <mxPoint x="130" y="150" as="targetPoint"/>
                    </mxGeometry>
                </mxCell>
                <mxCell id="gRlhBFTV5GNe4UzuhLn--5" value="公钥Q：十亿" style="rounded=1;whiteSpace=wrap;html=1;" parent="1" vertex="1">
                    <mxGeometry x="170" y="150" width="90" height="40" as="geometry"/>
                </mxCell>
                <mxCell id="gRlhBFTV5GNe4UzuhLn--6" value="Q的签名" style="rounded=1;whiteSpace=wrap;html=1;" parent="1" vertex="1">
                    <mxGeometry x="260" y="150" width="60" height="40" as="geometry"/>
                </mxCell>
                <mxCell id="gRlhBFTV5GNe4UzuhLn--7" value="记录#2" style="rounded=1;whiteSpace=wrap;html=1;verticalAlign=top;" parent="1" vertex="1">
                    <mxGeometry x="400" y="120" width="170" height="80" as="geometry"/>
                </mxCell>
                <mxCell id="gRlhBFTV5GNe4UzuhLn--8" value="公钥Q：9.999亿" style="rounded=1;whiteSpace=wrap;html=1;" parent="1" vertex="1">
                    <mxGeometry x="410" y="150" width="90" height="40" as="geometry"/>
                </mxCell>
                <mxCell id="gRlhBFTV5GNe4UzuhLn--9" value="Q的签名" style="rounded=1;whiteSpace=wrap;html=1;" parent="1" vertex="1">
                    <mxGeometry x="500" y="150" width="60" height="40" as="geometry"/>
                </mxCell>
                <mxCell id="gRlhBFTV5GNe4UzuhLn--10" value="记录#3&lt;div&gt;&lt;br&gt;&lt;/div&gt;" style="rounded=1;whiteSpace=wrap;html=1;verticalAlign=top;" parent="1" vertex="1">
                    <mxGeometry x="400" y="200" width="170" height="80" as="geometry"/>
                </mxCell>
                <mxCell id="gRlhBFTV5GNe4UzuhLn--11" value="公钥A：一万" style="rounded=1;whiteSpace=wrap;html=1;" parent="1" vertex="1">
                    <mxGeometry x="410" y="230" width="90" height="40" as="geometry"/>
                </mxCell>
                <mxCell id="gRlhBFTV5GNe4UzuhLn--12" value="Q的签名" style="rounded=1;whiteSpace=wrap;html=1;" parent="1" vertex="1">
                    <mxGeometry x="500" y="230" width="60" height="40" as="geometry"/>
                </mxCell>
                <mxCell id="gRlhBFTV5GNe4UzuhLn--13" value="交易1" style="ellipse;whiteSpace=wrap;html=1;aspect=fixed;" parent="1" vertex="1">
                    <mxGeometry x="100" y="140" width="40" height="40" as="geometry"/>
                </mxCell>
                <mxCell id="R_clLeRJ_Ar4vMEyaZgw-2" style="edgeStyle=none;html=1;exitX=0.5;exitY=1;exitDx=0;exitDy=0;entryX=0;entryY=0.5;entryDx=0;entryDy=0;" parent="1" source="gRlhBFTV5GNe4UzuhLn--14" target="gRlhBFTV5GNe4UzuhLn--10" edge="1">
                    <mxGeometry relative="1" as="geometry">
                        <Array as="points">
                            <mxPoint x="360" y="240"/>
                        </Array>
                    </mxGeometry>
                </mxCell>
                <mxCell id="gRlhBFTV5GNe4UzuhLn--14" value="交易2" style="ellipse;whiteSpace=wrap;html=1;aspect=fixed;" parent="1" vertex="1">
                    <mxGeometry x="340" y="140" width="40" height="40" as="geometry"/>
                </mxCell>
            </root>
        </mxGraphModel>
    </diagram>
    <diagram id="LDMFIEbIL9s-2XJydUHg" name="tx3">
        <mxGraphModel dx="789" dy="652" grid="1" gridSize="10" guides="1" tooltips="1" connect="1" arrows="1" fold="1" page="1" pageScale="1" pageWidth="827" pageHeight="1169" math="0" shadow="0">
            <root>
                <mxCell id="0"/>
                <mxCell id="1" parent="0"/>
                <mxCell id="uhDiFpOtAXj6TBGSk0IT-1" style="edgeStyle=none;html=1;exitX=1;exitY=0.5;exitDx=0;exitDy=0;entryX=0;entryY=0.5;entryDx=0;entryDy=0;" parent="1" source="HMfQpaNw_v-bVtgn-2r--3" target="HMfQpaNw_v-bVtgn-2r--8" edge="1">
                    <mxGeometry relative="1" as="geometry"/>
                </mxCell>
                <mxCell id="HMfQpaNw_v-bVtgn-2r--3" value="记录#1&lt;div&gt;&lt;br&gt;&lt;/div&gt;" style="rounded=1;whiteSpace=wrap;html=1;verticalAlign=top;fillColor=#E6E6E6;" parent="1" vertex="1">
                    <mxGeometry x="120" y="200" width="170" height="80" as="geometry"/>
                </mxCell>
                <mxCell id="HMfQpaNw_v-bVtgn-2r--4" value="" style="endArrow=classic;html=1;entryX=0;entryY=0.5;entryDx=0;entryDy=0;" parent="1" target="HMfQpaNw_v-bVtgn-2r--3" edge="1">
                    <mxGeometry width="50" height="50" relative="1" as="geometry">
                        <mxPoint x="40" y="240" as="sourcePoint"/>
                        <mxPoint x="90" y="230" as="targetPoint"/>
                    </mxGeometry>
                </mxCell>
                <mxCell id="HMfQpaNw_v-bVtgn-2r--5" value="公钥Q：十亿" style="rounded=1;whiteSpace=wrap;html=1;" parent="1" vertex="1">
                    <mxGeometry x="130" y="230" width="90" height="40" as="geometry"/>
                </mxCell>
                <mxCell id="HMfQpaNw_v-bVtgn-2r--6" value="Q的签名" style="rounded=1;whiteSpace=wrap;html=1;" parent="1" vertex="1">
                    <mxGeometry x="220" y="230" width="60" height="40" as="geometry"/>
                </mxCell>
                <mxCell id="HMfQpaNw_v-bVtgn-2r--7" style="edgeStyle=none;html=1;exitX=1;exitY=0.5;exitDx=0;exitDy=0;entryX=0;entryY=0.5;entryDx=0;entryDy=0;" parent="1" source="HMfQpaNw_v-bVtgn-2r--8" target="HMfQpaNw_v-bVtgn-2r--16" edge="1">
                    <mxGeometry relative="1" as="geometry"/>
                </mxCell>
                <mxCell id="HMfQpaNw_v-bVtgn-2r--8" value="记录#2" style="rounded=1;whiteSpace=wrap;html=1;verticalAlign=top;fillColor=#E6E6E6;" parent="1" vertex="1">
                    <mxGeometry x="360" y="200" width="170" height="80" as="geometry"/>
                </mxCell>
                <mxCell id="HMfQpaNw_v-bVtgn-2r--9" value="公钥Q：9.999亿" style="rounded=1;whiteSpace=wrap;html=1;" parent="1" vertex="1">
                    <mxGeometry x="370" y="230" width="90" height="40" as="geometry"/>
                </mxCell>
                <mxCell id="HMfQpaNw_v-bVtgn-2r--10" value="Q的签名" style="rounded=1;whiteSpace=wrap;html=1;" parent="1" vertex="1">
                    <mxGeometry x="460" y="230" width="60" height="40" as="geometry"/>
                </mxCell>
                <mxCell id="HMfQpaNw_v-bVtgn-2r--11" value="记录#3&lt;div&gt;&lt;br&gt;&lt;/div&gt;" style="rounded=1;whiteSpace=wrap;html=1;verticalAlign=top;" parent="1" vertex="1">
                    <mxGeometry x="360" y="280" width="170" height="80" as="geometry"/>
                </mxCell>
                <mxCell id="HMfQpaNw_v-bVtgn-2r--12" value="公钥A：一万" style="rounded=1;whiteSpace=wrap;html=1;" parent="1" vertex="1">
                    <mxGeometry x="370" y="310" width="90" height="40" as="geometry"/>
                </mxCell>
                <mxCell id="HMfQpaNw_v-bVtgn-2r--13" value="Q的签名" style="rounded=1;whiteSpace=wrap;html=1;" parent="1" vertex="1">
                    <mxGeometry x="460" y="310" width="60" height="40" as="geometry"/>
                </mxCell>
                <mxCell id="HMfQpaNw_v-bVtgn-2r--14" value="交易1" style="ellipse;whiteSpace=wrap;html=1;aspect=fixed;" parent="1" vertex="1">
                    <mxGeometry x="60" y="220" width="40" height="40" as="geometry"/>
                </mxCell>
                <mxCell id="uhDiFpOtAXj6TBGSk0IT-2" style="edgeStyle=none;html=1;exitX=0.5;exitY=1;exitDx=0;exitDy=0;entryX=0;entryY=0.5;entryDx=0;entryDy=0;" parent="1" source="HMfQpaNw_v-bVtgn-2r--15" target="HMfQpaNw_v-bVtgn-2r--11" edge="1">
                    <mxGeometry relative="1" as="geometry">
                        <Array as="points">
                            <mxPoint x="320" y="320"/>
                        </Array>
                    </mxGeometry>
                </mxCell>
                <mxCell id="HMfQpaNw_v-bVtgn-2r--15" value="交易2" style="ellipse;whiteSpace=wrap;html=1;aspect=fixed;" parent="1" vertex="1">
                    <mxGeometry x="300" y="220" width="40" height="40" as="geometry"/>
                </mxCell>
                <mxCell id="HMfQpaNw_v-bVtgn-2r--16" value="记录#4" style="rounded=1;whiteSpace=wrap;html=1;verticalAlign=top;" parent="1" vertex="1">
                    <mxGeometry x="600" y="200" width="170" height="80" as="geometry"/>
                </mxCell>
                <mxCell id="HMfQpaNw_v-bVtgn-2r--17" value="公钥Q：9.998亿" style="rounded=1;whiteSpace=wrap;html=1;" parent="1" vertex="1">
                    <mxGeometry x="610" y="230" width="90" height="40" as="geometry"/>
                </mxCell>
                <mxCell id="HMfQpaNw_v-bVtgn-2r--18" value="Q的签名" style="rounded=1;whiteSpace=wrap;html=1;" parent="1" vertex="1">
                    <mxGeometry x="700" y="230" width="60" height="40" as="geometry"/>
                </mxCell>
                <mxCell id="HMfQpaNw_v-bVtgn-2r--19" value="记录#5" style="rounded=1;whiteSpace=wrap;html=1;verticalAlign=top;" parent="1" vertex="1">
                    <mxGeometry x="600" y="280" width="170" height="80" as="geometry"/>
                </mxCell>
                <mxCell id="HMfQpaNw_v-bVtgn-2r--20" value="公钥A：一万" style="rounded=1;whiteSpace=wrap;html=1;" parent="1" vertex="1">
                    <mxGeometry x="610" y="310" width="90" height="40" as="geometry"/>
                </mxCell>
                <mxCell id="HMfQpaNw_v-bVtgn-2r--21" value="Q的签名" style="rounded=1;whiteSpace=wrap;html=1;" parent="1" vertex="1">
                    <mxGeometry x="700" y="310" width="60" height="40" as="geometry"/>
                </mxCell>
                <mxCell id="HMfQpaNw_v-bVtgn-2r--22" style="edgeStyle=none;html=1;exitX=0.5;exitY=1;exitDx=0;exitDy=0;entryX=0;entryY=0.5;entryDx=0;entryDy=0;" parent="1" source="HMfQpaNw_v-bVtgn-2r--23" target="HMfQpaNw_v-bVtgn-2r--19" edge="1">
                    <mxGeometry relative="1" as="geometry">
                        <Array as="points">
                            <mxPoint x="560" y="320"/>
                        </Array>
                    </mxGeometry>
                </mxCell>
                <mxCell id="HMfQpaNw_v-bVtgn-2r--23" value="交易3" style="ellipse;whiteSpace=wrap;html=1;aspect=fixed;" parent="1" vertex="1">
                    <mxGeometry x="540" y="220" width="40" height="40" as="geometry"/>
                </mxCell>
            </root>
        </mxGraphModel>
    </diagram>
    <diagram id="mgTiRSMYBNPm3hgAiS35" name="tx4">
        <mxGraphModel dx="789" dy="652" grid="1" gridSize="10" guides="1" tooltips="1" connect="1" arrows="1" fold="1" page="1" pageScale="1" pageWidth="827" pageHeight="1169" math="0" shadow="0">
            <root>
                <mxCell id="0"/>
                <mxCell id="1" parent="0"/>
                <mxCell id="fx7HrOp8H-nQilBJJnTu-1" value="记录#6" style="rounded=1;whiteSpace=wrap;html=1;verticalAlign=top;" parent="1" vertex="1">
                    <mxGeometry x="800" y="360" width="170" height="80" as="geometry"/>
                </mxCell>
                <mxCell id="fx7HrOp8H-nQilBJJnTu-2" value="公钥B：两万" style="rounded=1;whiteSpace=wrap;html=1;" parent="1" vertex="1">
                    <mxGeometry x="810" y="390" width="90" height="40" as="geometry"/>
                </mxCell>
                <mxCell id="fx7HrOp8H-nQilBJJnTu-3" value="A的签名" style="rounded=1;whiteSpace=wrap;html=1;" parent="1" vertex="1">
                    <mxGeometry x="900" y="390" width="60" height="40" as="geometry"/>
                </mxCell>
                <mxCell id="rplvikfmQq9Yewq4MuC2-1" style="edgeStyle=none;html=1;exitX=1;exitY=0.5;exitDx=0;exitDy=0;entryX=0;entryY=0.5;entryDx=0;entryDy=0;" parent="1" source="rplvikfmQq9Yewq4MuC2-2" target="rplvikfmQq9Yewq4MuC2-7" edge="1">
                    <mxGeometry relative="1" as="geometry"/>
                </mxCell>
                <mxCell id="rplvikfmQq9Yewq4MuC2-2" value="记录#1&lt;div&gt;&lt;br&gt;&lt;/div&gt;" style="rounded=1;whiteSpace=wrap;html=1;verticalAlign=top;fillColor=#E6E6E6;" parent="1" vertex="1">
                    <mxGeometry x="120" y="200" width="170" height="80" as="geometry"/>
                </mxCell>
                <mxCell id="rplvikfmQq9Yewq4MuC2-3" value="" style="endArrow=classic;html=1;entryX=0;entryY=0.5;entryDx=0;entryDy=0;" parent="1" target="rplvikfmQq9Yewq4MuC2-2" edge="1">
                    <mxGeometry width="50" height="50" relative="1" as="geometry">
                        <mxPoint x="40" y="240" as="sourcePoint"/>
                        <mxPoint x="90" y="230" as="targetPoint"/>
                    </mxGeometry>
                </mxCell>
                <mxCell id="rplvikfmQq9Yewq4MuC2-4" value="公钥Q：十亿" style="rounded=1;whiteSpace=wrap;html=1;" parent="1" vertex="1">
                    <mxGeometry x="130" y="230" width="90" height="40" as="geometry"/>
                </mxCell>
                <mxCell id="rplvikfmQq9Yewq4MuC2-5" value="Q的签名" style="rounded=1;whiteSpace=wrap;html=1;" parent="1" vertex="1">
                    <mxGeometry x="220" y="230" width="60" height="40" as="geometry"/>
                </mxCell>
                <mxCell id="rplvikfmQq9Yewq4MuC2-6" style="edgeStyle=none;html=1;exitX=1;exitY=0.5;exitDx=0;exitDy=0;entryX=0;entryY=0.5;entryDx=0;entryDy=0;" parent="1" source="rplvikfmQq9Yewq4MuC2-7" target="rplvikfmQq9Yewq4MuC2-16" edge="1">
                    <mxGeometry relative="1" as="geometry"/>
                </mxCell>
                <mxCell id="rplvikfmQq9Yewq4MuC2-7" value="记录#2" style="rounded=1;whiteSpace=wrap;html=1;verticalAlign=top;fillColor=#E6E6E6;" parent="1" vertex="1">
                    <mxGeometry x="360" y="200" width="170" height="80" as="geometry"/>
                </mxCell>
                <mxCell id="rplvikfmQq9Yewq4MuC2-8" value="公钥Q：9.999亿" style="rounded=1;whiteSpace=wrap;html=1;" parent="1" vertex="1">
                    <mxGeometry x="370" y="230" width="90" height="40" as="geometry"/>
                </mxCell>
                <mxCell id="rplvikfmQq9Yewq4MuC2-9" value="Q的签名" style="rounded=1;whiteSpace=wrap;html=1;" parent="1" vertex="1">
                    <mxGeometry x="460" y="230" width="60" height="40" as="geometry"/>
                </mxCell>
                <mxCell id="rplvikfmQq9Yewq4MuC2-29" style="edgeStyle=none;html=1;exitX=0.5;exitY=1;exitDx=0;exitDy=0;entryX=0;entryY=0.5;entryDx=0;entryDy=0;" parent="1" source="rplvikfmQq9Yewq4MuC2-10" target="fx7HrOp8H-nQilBJJnTu-1" edge="1">
                    <mxGeometry relative="1" as="geometry">
                        <Array as="points">
                            <mxPoint x="445" y="400"/>
                        </Array>
                    </mxGeometry>
                </mxCell>
                <mxCell id="rplvikfmQq9Yewq4MuC2-10" value="记录#3&lt;div&gt;&lt;br&gt;&lt;/div&gt;" style="rounded=1;whiteSpace=wrap;html=1;verticalAlign=top;fillColor=#E6E6E6;" parent="1" vertex="1">
                    <mxGeometry x="360" y="280" width="170" height="80" as="geometry"/>
                </mxCell>
                <mxCell id="rplvikfmQq9Yewq4MuC2-11" value="公钥A：一万" style="rounded=1;whiteSpace=wrap;html=1;" parent="1" vertex="1">
                    <mxGeometry x="370" y="310" width="90" height="40" as="geometry"/>
                </mxCell>
                <mxCell id="rplvikfmQq9Yewq4MuC2-12" value="Q的签名" style="rounded=1;whiteSpace=wrap;html=1;" parent="1" vertex="1">
                    <mxGeometry x="460" y="310" width="60" height="40" as="geometry"/>
                </mxCell>
                <mxCell id="rplvikfmQq9Yewq4MuC2-13" value="交易1" style="ellipse;whiteSpace=wrap;html=1;aspect=fixed;" parent="1" vertex="1">
                    <mxGeometry x="60" y="220" width="40" height="40" as="geometry"/>
                </mxCell>
                <mxCell id="rplvikfmQq9Yewq4MuC2-14" style="edgeStyle=none;html=1;exitX=0.5;exitY=1;exitDx=0;exitDy=0;entryX=0;entryY=0.5;entryDx=0;entryDy=0;" parent="1" source="rplvikfmQq9Yewq4MuC2-15" target="rplvikfmQq9Yewq4MuC2-10" edge="1">
                    <mxGeometry relative="1" as="geometry">
                        <Array as="points">
                            <mxPoint x="320" y="320"/>
                        </Array>
                    </mxGeometry>
                </mxCell>
                <mxCell id="rplvikfmQq9Yewq4MuC2-15" value="交易2" style="ellipse;whiteSpace=wrap;html=1;aspect=fixed;" parent="1" vertex="1">
                    <mxGeometry x="300" y="220" width="40" height="40" as="geometry"/>
                </mxCell>
                <mxCell id="rplvikfmQq9Yewq4MuC2-16" value="记录#4" style="rounded=1;whiteSpace=wrap;html=1;verticalAlign=top;" parent="1" vertex="1">
                    <mxGeometry x="600" y="200" width="170" height="80" as="geometry"/>
                </mxCell>
                <mxCell id="rplvikfmQq9Yewq4MuC2-17" value="公钥Q：9.998亿" style="rounded=1;whiteSpace=wrap;html=1;" parent="1" vertex="1">
                    <mxGeometry x="610" y="230" width="90" height="40" as="geometry"/>
                </mxCell>
                <mxCell id="rplvikfmQq9Yewq4MuC2-18" value="Q的签名" style="rounded=1;whiteSpace=wrap;html=1;" parent="1" vertex="1">
                    <mxGeometry x="700" y="230" width="60" height="40" as="geometry"/>
                </mxCell>
                <mxCell id="rplvikfmQq9Yewq4MuC2-30" style="edgeStyle=none;html=1;exitX=0.5;exitY=1;exitDx=0;exitDy=0;entryX=0.5;entryY=0;entryDx=0;entryDy=0;endArrow=none;endFill=0;" parent="1" source="rplvikfmQq9Yewq4MuC2-19" target="rplvikfmQq9Yewq4MuC2-26" edge="1">
                    <mxGeometry relative="1" as="geometry"/>
                </mxCell>
                <mxCell id="rplvikfmQq9Yewq4MuC2-19" value="记录#5" style="rounded=1;whiteSpace=wrap;html=1;verticalAlign=top;fillColor=#E6E6E6;" parent="1" vertex="1">
                    <mxGeometry x="600" y="280" width="170" height="80" as="geometry"/>
                </mxCell>
                <mxCell id="rplvikfmQq9Yewq4MuC2-20" value="公钥A：一万" style="rounded=1;whiteSpace=wrap;html=1;" parent="1" vertex="1">
                    <mxGeometry x="610" y="310" width="90" height="40" as="geometry"/>
                </mxCell>
                <mxCell id="rplvikfmQq9Yewq4MuC2-21" value="Q的签名" style="rounded=1;whiteSpace=wrap;html=1;" parent="1" vertex="1">
                    <mxGeometry x="700" y="310" width="60" height="40" as="geometry"/>
                </mxCell>
                <mxCell id="rplvikfmQq9Yewq4MuC2-22" style="edgeStyle=none;html=1;exitX=0.5;exitY=1;exitDx=0;exitDy=0;entryX=0;entryY=0.5;entryDx=0;entryDy=0;" parent="1" source="rplvikfmQq9Yewq4MuC2-23" target="rplvikfmQq9Yewq4MuC2-19" edge="1">
                    <mxGeometry relative="1" as="geometry">
                        <Array as="points">
                            <mxPoint x="560" y="320"/>
                        </Array>
                    </mxGeometry>
                </mxCell>
                <mxCell id="rplvikfmQq9Yewq4MuC2-23" value="交易3" style="ellipse;whiteSpace=wrap;html=1;aspect=fixed;" parent="1" vertex="1">
                    <mxGeometry x="540" y="220" width="40" height="40" as="geometry"/>
                </mxCell>
                <mxCell id="rplvikfmQq9Yewq4MuC2-26" value="交易3" style="ellipse;whiteSpace=wrap;html=1;aspect=fixed;" parent="1" vertex="1">
                    <mxGeometry x="665" y="380" width="40" height="40" as="geometry"/>
                </mxCell>
            </root>
        </mxGraphModel>
    </diagram>
    <diagram id="QV75O76QphH_LmIpKPmG" name="Model">
        <mxGraphModel dx="797" dy="652" grid="1" gridSize="10" guides="1" tooltips="1" connect="1" arrows="1" fold="1" page="1" pageScale="1" pageWidth="827" pageHeight="1169" math="0" shadow="0">
            <root>
                <mxCell id="0"/>
                <mxCell id="1" parent="0"/>
                <mxCell id="qq1t9xzWDP-lepQwqxWp-2" style="edgeStyle=none;html=1;entryX=0;entryY=0.5;entryDx=0;entryDy=0;exitX=0.5;exitY=0;exitDx=0;exitDy=0;" parent="1" source="gyaGIgvPLKoKmxf6FDBj-1" edge="1">
                    <mxGeometry relative="1" as="geometry">
                        <mxPoint x="310" y="190" as="sourcePoint"/>
                        <mxPoint x="440" y="150" as="targetPoint"/>
                        <Array as="points">
                            <mxPoint x="380" y="150"/>
                            <mxPoint x="420" y="150"/>
                        </Array>
                    </mxGeometry>
                </mxCell>
                <mxCell id="qq1t9xzWDP-lepQwqxWp-4" style="edgeStyle=none;html=1;exitX=0.5;exitY=1;exitDx=0;exitDy=0;entryX=0;entryY=0.5;entryDx=0;entryDy=0;" parent="1" source="gyaGIgvPLKoKmxf6FDBj-1" edge="1">
                    <mxGeometry relative="1" as="geometry">
                        <mxPoint x="400" y="190" as="sourcePoint"/>
                        <mxPoint x="440" y="230" as="targetPoint"/>
                        <Array as="points">
                            <mxPoint x="380" y="230"/>
                            <mxPoint x="420" y="230"/>
                        </Array>
                    </mxGeometry>
                </mxCell>
                <mxCell id="qq1t9xzWDP-lepQwqxWp-19" style="edgeStyle=none;html=1;entryX=0;entryY=0.5;entryDx=0;entryDy=0;" parent="1" target="qq1t9xzWDP-lepQwqxWp-9" edge="1">
                    <mxGeometry relative="1" as="geometry">
                        <mxPoint x="210" y="186" as="sourcePoint"/>
                    </mxGeometry>
                </mxCell>
                <mxCell id="qq1t9xzWDP-lepQwqxWp-5" value="" style="shape=actor;whiteSpace=wrap;html=1;" parent="1" vertex="1">
                    <mxGeometry x="160" y="166.38" width="40" height="40" as="geometry"/>
                </mxCell>
                <mxCell id="qq1t9xzWDP-lepQwqxWp-6" value="" style="shape=actor;whiteSpace=wrap;html=1;" parent="1" vertex="1">
                    <mxGeometry x="560" y="128.59" width="40" height="40" as="geometry"/>
                </mxCell>
                <mxCell id="qq1t9xzWDP-lepQwqxWp-9" value="" style="shape=image;verticalLabelPosition=bottom;labelBackgroundColor=default;verticalAlign=top;aspect=fixed;imageAspect=0;image=data:image/png,iVBORw0KGgoAAAANSUhEUgAAAF4AAABECAIAAACH/RXEAAAAAXNSR0IArs4c6QAAAERlWElmTU0AKgAAAAgAAYdpAAQAAAABAAAAGgAAAAAAA6ABAAMAAAABAAEAAKACAAQAAAABAAAAXqADAAQAAAABAAAARAAAAADlpIWbAAAVFElEQVR4Ae3b2Y9VxfYHcE7TQCPdIE6NMshBrwiK4hUV5zkOP3GIcXox8cnER/XFBxP/BBMTn3wwaoxTjMYY/ak/VDTen7MMAgqCICCDgMxTD/dTex3KzenTAyh4k0uhm7WrVq3hW6tWDftQ6e7uHnS0NEKgqVHl0bqEwFFoeo2Do9AchaZXBHptaO615XA2lHN/ma5UKl6bmpqisqurC80Q9YfTnMay/zZoeKuAQOns7Bw8eLBXWESJpsYmH6navwca/nd0dOwqytatW9euXfv777/v3LkTTEOGDDn22GPHjh3b1tY2fPjwESNGDBs2TOwA60hhUtMzIGhYHOzlwQw6PwdiN0SI2rZt27Jly3744YeVK1euX78eIvv27RM1mqIQRewxxxxz3HHHwegfRRkzZkzdxMLTm1JyQkgQwYYOa2OS9tY316eQzi89iWj1VMhVgsdrELxVybGefXONAInuouRfRfntt992794d0iKzkIMfW04uIVllxNHkyZOvv/76k046Sa+Q1oeH2bzgDMkEsjOe2bY+iH6g0ZNjzc3NJFIDkF27dvJKTWtrK+O00ue1Dx1SiZ6LFi164YUXgBKc+kaKIef4448/4YQThImmPXv2CCvRZIrlaFKPv6Wl5ZprrrnuuuuGDh3qtY/x6O5Kf4BIhagkk4W6m5scgXUf1uamxtDwJIYUQZZ0sHjx4q+++urnn39mN31hqCCfMWPGueeey7esL/cd1J3+6L5p06b3339fuIgaYqOvLuecc061WpVTsi4Efm5QgVkOWrBgwS+//ILmnlbl9NNPv+eee04++WQavf6hbr9P+m7evHnJkiXZ4Bg/0Jie/yzKqFGjaNFdp54SQlJjaAyXZj4Q+u2333700UcrVqygUiVxrNeERng14NRdcsklJ554YigznvTF0On45ptvMrQIuy42nX322eedd55cGwLDMh1Tl/3zNF49lY0bNy5dunTu3LkgDp7Ro0fffvvt06dPFwUsFEThjKeR+/+iABQzO6MLOZlH98svv5zBCPXhTpkhOHuFhtAdO3b8X1FixAIIYZ9HlW/Y1BtAUXDbbbcJBDUBDQXLly9/5plnYhKpnDRp0h133HHKKadYerZv385nPExnVliW3fAadPhGEf758xd88cXnho1G0/DGG2+84ooroBPMRIHjpZdekt1NeR2j3hoHu71798YKqBKavDBC9957L4LxdOEPRPKzMTQ6g+Ozzz574403ELzSn9uiY+TIkQGN8YlZBsEQTfqsWbOuvfZaDGqY+PTTT2/ZsiVauQEXTaTh3LBhA2/L0GQ4ENk+faNeL1YJn3feeYfnwDJB7r777pkXzWwanEJj/vz5zz33XBjjlSIz3XxnMGj0NU66m6H6KsRefPHF999/P8lhYVYaxOAnnniirsor1nXr1r388sv892qmRAAb7UDXk2Xjxo2DFyNkTbr1+vHHHw3phAkTzPYXX3zx119/1d3IwOvSSy81mxhk2OESYxjSwgDdg2j41Kqv2Bw/fjwnDRiNP/30U3VSVQR99913r7zyClz4LI6mTp165513Tps2jeqawZUmiU93qYpT4dfq1au5IGOSrNTp7RWa9957z5qiQ1tr21133dU+pr2up1etoomtFECHZXBht+f3RcEDuKuvvvrCCy9UyR9FUveM7j1l9l1DIyBAH7NG+FBnyrz22mtWNPBJ6ldddZU8ojLQrAmsDIJarK0MxgwdqAHXmDFyoNAQ8fzzz0cyvunmm8ZPGN+zZ/hGPQWC9tRTT5U7qFRvITMgmlhjHt1www3HHXc8abGOwij61ow+yL9Ywn8rFK8EjllpXhsV9cwwo88444xIH3VaGLNr565Y1MXvqlWripHac9ppp7W3t/d0sD73hJ12q8aWb3L4mWeeWacj+4IBHU87V3lRcHqlktEgkHdvuummIj2Z0emU5KkLNLXGM0vrSeBXCCQNgSGeakBz2WWXgUBlxKAwMYlEBLFhkqZMoNVXUmpOhUl2j9H65ZdfltlwRmkMjXSFW5k4caInofv5G/+Ngc/0QcdUj9VU5IsXFutjgbA3KUQmaQqvDGMg1VhosTmAIE8EPJ7CqVpGQNsfm1lROXToMHtlePUtMCvCJlKIZZKsGuDm1iAa+yxqqMRhz1LXoeErBXygr3VEK1zQtNq8GJmwVcDH9MRp3r399tv2Y9i8NhQYlWwAH9OtShK8Sl0yvxQrhRkJNYwNPwkMsDJbTyKsDU5PuJjpPdkaQ2N9oUA3I8+3skE9RUQNZmXJ0iUCRFCIIDPRU6u9n0qtaLHz7LPPPvbYY4888ogTZt/okMPoJ5988vHHH3/44YdjH5QN0Ff6N4OYSr6MY97p4jXz1BHhCI51a9cu/P77jn0d6H179/ovzCvzN4AGU0dHWvYVQ2HcEOU+PWkGiQBxITWyEj+jLflmDWQ7uzo1JXGVimX7ww8/lOYRr7/+uo4hradlUb9h/Qa7TkEHxw8++ICEsnbybbX0rQyqiHTjz/nwv8yW6QDO6vbpJ5/u2L49hOHPsVs2owE0BLW1tWJS+JDl9kGQbh8nc1uhCk3dEkHwE9LZAd7OqMdgc+yVG8a5b/miYP2G9UKYECjYrdVBQ4V9SjqFNVWIcuZK8B8IXzabNGXe3HlzPp4jTjKfwSM8s2WiATT6yBE8QcTij5txZZWF3NoAGjGtihAb3jLc085K1JAAhYTXloSXLozwRDNFQcSaQX5ZePnVhIoumBVasukOqvFq9Y1WgZPsKEqw6aug1YHY6WrB9wu8jRo5qlqd5MrAZLdqDB/ekvmz/AbQaDOBQ4GNnBHmUkhnQUEXR7Jie54EFRCxwOjdcOMNVutbbrnFvlmNUXImlF8SV/GqXiFcDQSbh6SlJ+QXkmooo/GIf4sOENG6OzerzyWCQ5MIDYGasMWs4TM6IEPYvr777rs2XNw5eczJl152KWsp0TRiRCuTEFlyEI3vWezfIgvICOwOxd98841TVXGm/ydZ3M6ygpl03trgCBw25dZMYNBqS2bRwWOX3Dy4uaMzycGfjPOnMDFe6XUW5Xkk7CuvvDKLKhN4br75Zoc1C5YuilYHK0JoEfiy1cKFC9Wzc8qUKeedO53xxd49QWMHIHzKAoNuUKVh4sSJ4Z4ZISmgiXCxILw//vhjc96h/rRJpxnz8EQXitEKg8K4nsq0gubBBx8UjI45t956q72pOWUk58yZU01l0nvv/a/0gYruxvahhx566qmnbHN5VUPwQNHGyUYhbKjhUtyT8R8iJEtwVA8b1jJjxvlpK9Q9yHiY5k5Vgsv9KvMHRfCXJDeGxt7EnJLJSXfhojPRdp9QX7lipUX0rbfeEurO9fa7bW0j5WAy8cTI9AZN1J9//vmvvfra4OZ0/tYLOgIT+nLBmDE7ly9fDinabVgQ6u3lHIuY5JWKkvE1MvDSpAQtUlxQ2DpJzFywAxJZkLWZwKPbbkc5J2f7pu7OsePHNQDG6a+nJjX625Ws+HkFo8VITGZ4G3MqXW6ZtGvWrKFYjdmHIdKTjuF/JhrKjxSTQwAzu63N7qssW6tWrXJdIMXkvpFu8tTO9UHorhR6K/Ka2wkBbs7GDsvgXXDBBe4JqItCjgxoNugFMi7oi64T2xgaTE70pijIHRqsi4LWoI1sGymCYAEU2xPomBomHbAo0IWHpgDdmOs09faKmcW23W5zEALEmBc58oAesQ6WHYgxwKRSR2nR1YQZZA8VeysXiS5DqtUqTq3hv1DFbIBDlAud5mZjkNJTXekVGnIt4ZynCTrmDlmmKNFGQDJ64IEHzLgvvvhCBOExSm5noCm4XOKATxhThj9GG5GdCSJqGBo2xclLR6904VHCgcRQGSQrYVapIyK6e0ULN7coBtIEVADtXsJQaSLB6TwIzCSx1tBCQ6oWUJAsR2jSVZTG0BDhiGC/wFuOzZ8335ShMvpkc7lhQRU1Pyz+YcXKFbKdtC83AUumsFqZZfCFsigAqEp9uRRyaAlRiEzXqfCqKVDgubJn957tO7azinw5igRum0eEszlWNKHNWpEbIRm7B6Iwk8Y8XWDN+PaT2gEUZoTq/GwMDaE0gcOCbVVau26toKA1pOfOCLodYfk/Y9cM6VmgggYza4yMoDMgRMFFCmQ6jBCKGSqsNPGBEKIYHZLDW9YzY/duZ78dppiRJ98GEs0kYu2eJoyfkNa4piZX6Mwg1kVMJCai1BMlp8T8CvTJtMcJeubMmQBCx2toz8/G0GgmVFBQxibSl/20DMZ1IryGIMz8VMBnAcJvbjsrm3ESXjgWR1acLA6jKbG0wSXQ0aQQCBTRIey5ESossf5EUak7ZJORTZWufWmBc/UhxsMYTwyYPTEL5OgSrQwrdjRdYvmss86KUQm9uXsQjaEpjEz7NzfPQoChS39aes655xiTuv7xmjGiiUEtw1rcgdmesE/4kCCarDtgktEDX03ElqVFfRbolSivjAlXhR4DbBqcQqrVKnRCAk6lLCpw8VRinUIEUtavorrLisHIcq86ujE0PKSMLMlMZiUL2HzrFxrSw42ujtotZ0vLcInZChoGQUqJSeFpAJkuQLTqW/iYEpBJISubbiLRHIyZiFbPNswZ1nit8yqLEvI4Y6TFjikpIWoVMpI0rHt2zDWNoSELh6fAkcM/+eQT1rgojGTM+egfngRnllgewAJfopIzGLgh8hX3FV6NdGwmQk7uGJ4kG4TC/t1GtKokCm0OerLEM3H2KOqBAppCUYopHSVgI4G2hAlqRMO+6pWak/FSfkYfFtjOGytGmBfSB5VKmbPf18xQJgraIxXSqKMiSqguGorm4hEa4x2NyM9oOuCZQK/I2TEk0SRCzWs1mhx0BE4oOqBj6aVXaPbzpBtmnyO8Ejp79myoZ/v28/zn/V1J14lCJjvP5uXLl0NH5ALFmSs39WZ9P9DYTxlJO1RZBkH0p59+KjWUxfWro8x8BGj2GEUhw+AILkq3bd3m9BA1PkBLXv1a0g80+tNkZso45FJpJ27GSmkRmf0qOJIMTI2IluDjiBT2M/Wrr7+KLGONt72I+r5t6weaiAi55uKZFzslkWW7NW/evPhiG2NyYObpW93hbQWB8TOVRHcESIDlxtrmEx2pc+iQ9MuKHFC92dQPNLqRaH6OHTfWadiCSr2NnLXc98mYWfacvUk/wvXgEBrxA4QIasbLOC4PuIB2D+fsEque177N6wea6O+pgMZ2CyFWv/76a4Njm4COGPbU1Leyw9ea7Cs+WtlzG7AwJpCaN28+U6mWfSVNeyX1wd+3Pf1AU+pcIfq+++6LHbojpW0lXGxwDQtTUgB3HbCol/oeCRIicLHbZgl9wsS+xmq9Zs1qr4LI13chE60DMWjA0BRBQbRPt+TS6r7WZYV8bH/JJkT6gdrfUYQAe8wjX/vDczWwkBYdj00xttms2svERnGANg4UGgc5Wol2Der0gRYpro6ED0L4OGdH3GbF7Mv04SNAABfDQ3v8dJAuJqn3Ozv5GOGs5HbJgUMocWGAxgwUmizOQUbgxMHMgDg9UM84FoidyD5/BG13iuTc968lAnrzyJoQBwLyqaZR5eeff277jsdByS8o4HKw2g8aGsqq1aqPTeAXqOCIoFXPJkOnRoFaSkDpHH7QKgboQ0wiYRv5hTqFDaySB22+WCjpSr2uKA/BjIFGV5hLAfVUXnTRRXHdyQ5rOYPM5FBvcjHaMFrpbToNWvTKDpMQA17UmHS1DJUrSct09IouKoMQFPKIaKVdDfnRhNnrwu8XSoJ42Ombl+thS0fYlm0YCJGUDYSvzOPoywa6/djPZylNFLtkMz6sUUCjMtzQZOhg5Gmqh5xQmlXXAZF5wp+QAy9FVEKEal28BqcnjDCrtB1V1NBlE//oo486A5KQVecu/RKHBk3NJouC3zIyhZVux325dEFv0xyuegbs0jHjmC6VN6eLmCHg88ZcPIr6uIgMczErZHpCWYGFGapVJf6ivRx6aV/qcGBqL1u2jHCBaI/q255LlZAvQyP6haPM8KegYaKPLX5AO2/udw5VdLe2jjjjjMkTqxNd9LneVIMHMGGWpBy64zU/wVS2KTzPT00hJ/i9agJzV7fY5K6flHb+8suqRQsXbdy0Hs7umidPPvPuu+9xKwR9wvHnvmVFfdN/CpqwUtKd/cH7sz+c7cciRWSkzeHUqWePnzCR3TJxWMA462ydNWWLOVDXml8zGyLozs6O+PSyft0GPzb1NczYdA/y05CmCy+48Lbbbh89+vgA5RCmUs3gPgzKltURuQsra2G/b++8uXNfffXVzcX1YmG9XyC0+bB9+j9O981fjR/ZiKE6UeFnVGaxdTxeMxsCG28le+uAjdWmzRsFhqlG9JAhzbf8z6wrnQaGymvp42fu2FNmvzWHEjVZKCsDGgdMGWHN6tV+dOdThq8bxaEhzW3hfVJ7u68ipn3zUGf4WqJhdJ3dPaHBoDLqheS+jpRxBKlj9KpVq3fv3uu7eWeXf0s1aFiLny+PmzXr1mo1jQRM7E/r5GezB0j8KWjoCNObir+9/r5liwPEN998vWzZ8q1btvrhsGN7mDJMArZfPOYYq5XrYTcDw1rSb0WFvcINz+AEdyAOCNGhIOwGFGu2V+tRyt3FJcOIEcNPPXX89OnTpkydYiL7aWlK6uli9+CSbqguP/8aaCr+8VHhGKRsuXxGE0Fzv/120aLFGzemLMBtLfu605pa0LW8iFY4GSVbFtAk3IsvULDQ5M0z+GHa3n6C3yxMmXqWnxKBu5DcmXJ/AuU/B5q0bUunS3+lNcP/nV1++elos3jR4h+X/OiTpjPEtt3px6HZ/yDC4ew5Qve6ytzLft/FSLVanTbt7PYxoyHSVBlapHpfh8yitGaV/qtTdXCvfxhxcP0GwJ3dsyuxAyquLzw2bf49HbXMDv8eT/rodP4qUlZgCtjBfmPSPNj2x5eo4S0tI1rbjh01yr+zGz16lIQ1sm2U78QF/rVfmWTgBmDUQbAcRmiyFbFVLV7dKINChae/aw8gFukl7RtNL8dj087mMOdsfVVhK+ZdEyjV+BV1qEhBehjKkYCG24VLHIgtHyBEf5qCntmxFGVpe1jciqXpsX9mIcP5ogs6cepaqSX4wwBLEnkkoCmZnlz668phCZZs3sGdvHO3QyUOrzOHalXjfvXrRWOu/8rao9D0OuxHoekVmn8DoMCGCMHLoLwAAAAASUVORK5CYII=;" parent="1" vertex="1">
                    <mxGeometry x="237.65" y="162.77" width="65.29" height="47.23" as="geometry"/>
                </mxCell>
                <mxCell id="qq1t9xzWDP-lepQwqxWp-10" value="10两" style="text;html=1;align=center;verticalAlign=middle;resizable=0;points=[];autosize=1;strokeColor=none;fillColor=none;" parent="1" vertex="1">
                    <mxGeometry x="245.29" y="205" width="50" height="30" as="geometry"/>
                </mxCell>
                <mxCell id="qq1t9xzWDP-lepQwqxWp-18" style="edgeStyle=none;html=1;exitX=1;exitY=0.5;exitDx=0;exitDy=0;" parent="1" source="qq1t9xzWDP-lepQwqxWp-39" edge="1">
                    <mxGeometry relative="1" as="geometry">
                        <mxPoint x="550" y="148" as="targetPoint"/>
                        <mxPoint x="496.0999999999999" y="144.08499999999992" as="sourcePoint"/>
                    </mxGeometry>
                </mxCell>
                <mxCell id="qq1t9xzWDP-lepQwqxWp-12" value="" style="shape=image;verticalLabelPosition=bottom;labelBackgroundColor=default;verticalAlign=top;aspect=fixed;imageAspect=0;image=data:image/png,iVBORw0KGgoAAAANSUhEUgAAAF4AAABECAIAAACH/RXEAAAAAXNSR0IArs4c6QAAAERlWElmTU0AKgAAAAgAAYdpAAQAAAABAAAAGgAAAAAAA6ABAAMAAAABAAEAAKACAAQAAAABAAAAXqADAAQAAAABAAAARAAAAADlpIWbAAAVFElEQVR4Ae3b2Y9VxfYHcE7TQCPdIE6NMshBrwiK4hUV5zkOP3GIcXox8cnER/XFBxP/BBMTn3wwaoxTjMYY/ak/VDTen7MMAgqCICCDgMxTD/dTex3KzenTAyh4k0uhm7WrVq3hW6tWDftQ6e7uHnS0NEKgqVHl0bqEwFFoeo2Do9AchaZXBHptaO615XA2lHN/ma5UKl6bmpqisqurC80Q9YfTnMay/zZoeKuAQOns7Bw8eLBXWESJpsYmH6navwca/nd0dOwqytatW9euXfv777/v3LkTTEOGDDn22GPHjh3b1tY2fPjwESNGDBs2TOwA60hhUtMzIGhYHOzlwQw6PwdiN0SI2rZt27Jly3744YeVK1euX78eIvv27RM1mqIQRewxxxxz3HHHwegfRRkzZkzdxMLTm1JyQkgQwYYOa2OS9tY316eQzi89iWj1VMhVgsdrELxVybGefXONAInuouRfRfntt992794d0iKzkIMfW04uIVllxNHkyZOvv/76k046Sa+Q1oeH2bzgDMkEsjOe2bY+iH6g0ZNjzc3NJFIDkF27dvJKTWtrK+O00ue1Dx1SiZ6LFi164YUXgBKc+kaKIef4448/4YQThImmPXv2CCvRZIrlaFKPv6Wl5ZprrrnuuuuGDh3qtY/x6O5Kf4BIhagkk4W6m5scgXUf1uamxtDwJIYUQZZ0sHjx4q+++urnn39mN31hqCCfMWPGueeey7esL/cd1J3+6L5p06b3339fuIgaYqOvLuecc061WpVTsi4Efm5QgVkOWrBgwS+//ILmnlbl9NNPv+eee04++WQavf6hbr9P+m7evHnJkiXZ4Bg/0Jie/yzKqFGjaNFdp54SQlJjaAyXZj4Q+u2333700UcrVqygUiVxrNeERng14NRdcsklJ554YigznvTF0On45ptvMrQIuy42nX322eedd55cGwLDMh1Tl/3zNF49lY0bNy5dunTu3LkgDp7Ro0fffvvt06dPFwUsFEThjKeR+/+iABQzO6MLOZlH98svv5zBCPXhTpkhOHuFhtAdO3b8X1FixAIIYZ9HlW/Y1BtAUXDbbbcJBDUBDQXLly9/5plnYhKpnDRp0h133HHKKadYerZv385nPExnVliW3fAadPhGEf758xd88cXnho1G0/DGG2+84ooroBPMRIHjpZdekt1NeR2j3hoHu71798YKqBKavDBC9957L4LxdOEPRPKzMTQ6g+Ozzz574403ELzSn9uiY+TIkQGN8YlZBsEQTfqsWbOuvfZaDGqY+PTTT2/ZsiVauQEXTaTh3LBhA2/L0GQ4ENk+faNeL1YJn3feeYfnwDJB7r777pkXzWwanEJj/vz5zz33XBjjlSIz3XxnMGj0NU66m6H6KsRefPHF999/P8lhYVYaxOAnnniirsor1nXr1r388sv892qmRAAb7UDXk2Xjxo2DFyNkTbr1+vHHHw3phAkTzPYXX3zx119/1d3IwOvSSy81mxhk2OESYxjSwgDdg2j41Kqv2Bw/fjwnDRiNP/30U3VSVQR99913r7zyClz4LI6mTp165513Tps2jeqawZUmiU93qYpT4dfq1au5IGOSrNTp7RWa9957z5qiQ1tr21133dU+pr2up1etoomtFECHZXBht+f3RcEDuKuvvvrCCy9UyR9FUveM7j1l9l1DIyBAH7NG+FBnyrz22mtWNPBJ6ldddZU8ojLQrAmsDIJarK0MxgwdqAHXmDFyoNAQ8fzzz0cyvunmm8ZPGN+zZ/hGPQWC9tRTT5U7qFRvITMgmlhjHt1www3HHXc8abGOwij61ow+yL9Ywn8rFK8EjllpXhsV9cwwo88444xIH3VaGLNr565Y1MXvqlWripHac9ppp7W3t/d0sD73hJ12q8aWb3L4mWeeWacj+4IBHU87V3lRcHqlktEgkHdvuummIj2Z0emU5KkLNLXGM0vrSeBXCCQNgSGeakBz2WWXgUBlxKAwMYlEBLFhkqZMoNVXUmpOhUl2j9H65ZdfltlwRmkMjXSFW5k4caInofv5G/+Ngc/0QcdUj9VU5IsXFutjgbA3KUQmaQqvDGMg1VhosTmAIE8EPJ7CqVpGQNsfm1lROXToMHtlePUtMCvCJlKIZZKsGuDm1iAa+yxqqMRhz1LXoeErBXygr3VEK1zQtNq8GJmwVcDH9MRp3r399tv2Y9i8NhQYlWwAH9OtShK8Sl0yvxQrhRkJNYwNPwkMsDJbTyKsDU5PuJjpPdkaQ2N9oUA3I8+3skE9RUQNZmXJ0iUCRFCIIDPRU6u9n0qtaLHz7LPPPvbYY4888ogTZt/okMPoJ5988vHHH3/44YdjH5QN0Ff6N4OYSr6MY97p4jXz1BHhCI51a9cu/P77jn0d6H179/ovzCvzN4AGU0dHWvYVQ2HcEOU+PWkGiQBxITWyEj+jLflmDWQ7uzo1JXGVimX7ww8/lOYRr7/+uo4hradlUb9h/Qa7TkEHxw8++ICEsnbybbX0rQyqiHTjz/nwv8yW6QDO6vbpJ5/u2L49hOHPsVs2owE0BLW1tWJS+JDl9kGQbh8nc1uhCk3dEkHwE9LZAd7OqMdgc+yVG8a5b/miYP2G9UKYECjYrdVBQ4V9SjqFNVWIcuZK8B8IXzabNGXe3HlzPp4jTjKfwSM8s2WiATT6yBE8QcTij5txZZWF3NoAGjGtihAb3jLc085K1JAAhYTXloSXLozwRDNFQcSaQX5ZePnVhIoumBVasukOqvFq9Y1WgZPsKEqw6aug1YHY6WrB9wu8jRo5qlqd5MrAZLdqDB/ekvmz/AbQaDOBQ4GNnBHmUkhnQUEXR7Jie54EFRCxwOjdcOMNVutbbrnFvlmNUXImlF8SV/GqXiFcDQSbh6SlJ+QXkmooo/GIf4sOENG6OzerzyWCQ5MIDYGasMWs4TM6IEPYvr777rs2XNw5eczJl152KWsp0TRiRCuTEFlyEI3vWezfIgvICOwOxd98841TVXGm/ydZ3M6ygpl03trgCBw25dZMYNBqS2bRwWOX3Dy4uaMzycGfjPOnMDFe6XUW5Xkk7CuvvDKLKhN4br75Zoc1C5YuilYHK0JoEfiy1cKFC9Wzc8qUKeedO53xxd49QWMHIHzKAoNuUKVh4sSJ4Z4ZISmgiXCxILw//vhjc96h/rRJpxnz8EQXitEKg8K4nsq0gubBBx8UjI45t956q72pOWUk58yZU01l0nvv/a/0gYruxvahhx566qmnbHN5VUPwQNHGyUYhbKjhUtyT8R8iJEtwVA8b1jJjxvlpK9Q9yHiY5k5Vgsv9KvMHRfCXJDeGxt7EnJLJSXfhojPRdp9QX7lipUX0rbfeEurO9fa7bW0j5WAy8cTI9AZN1J9//vmvvfra4OZ0/tYLOgIT+nLBmDE7ly9fDinabVgQ6u3lHIuY5JWKkvE1MvDSpAQtUlxQ2DpJzFywAxJZkLWZwKPbbkc5J2f7pu7OsePHNQDG6a+nJjX625Ws+HkFo8VITGZ4G3MqXW6ZtGvWrKFYjdmHIdKTjuF/JhrKjxSTQwAzu63N7qssW6tWrXJdIMXkvpFu8tTO9UHorhR6K/Ka2wkBbs7GDsvgXXDBBe4JqItCjgxoNugFMi7oi64T2xgaTE70pijIHRqsi4LWoI1sGymCYAEU2xPomBomHbAo0IWHpgDdmOs09faKmcW23W5zEALEmBc58oAesQ6WHYgxwKRSR2nR1YQZZA8VeysXiS5DqtUqTq3hv1DFbIBDlAud5mZjkNJTXekVGnIt4ZynCTrmDlmmKNFGQDJ64IEHzLgvvvhCBOExSm5noCm4XOKATxhThj9GG5GdCSJqGBo2xclLR6904VHCgcRQGSQrYVapIyK6e0ULN7coBtIEVADtXsJQaSLB6TwIzCSx1tBCQ6oWUJAsR2jSVZTG0BDhiGC/wFuOzZ8335ShMvpkc7lhQRU1Pyz+YcXKFbKdtC83AUumsFqZZfCFsigAqEp9uRRyaAlRiEzXqfCqKVDgubJn957tO7azinw5igRum0eEszlWNKHNWpEbIRm7B6Iwk8Y8XWDN+PaT2gEUZoTq/GwMDaE0gcOCbVVau26toKA1pOfOCLodYfk/Y9cM6VmgggYza4yMoDMgRMFFCmQ6jBCKGSqsNPGBEKIYHZLDW9YzY/duZ78dppiRJ98GEs0kYu2eJoyfkNa4piZX6Mwg1kVMJCai1BMlp8T8CvTJtMcJeubMmQBCx2toz8/G0GgmVFBQxibSl/20DMZ1IryGIMz8VMBnAcJvbjsrm3ESXjgWR1acLA6jKbG0wSXQ0aQQCBTRIey5ESossf5EUak7ZJORTZWufWmBc/UhxsMYTwyYPTEL5OgSrQwrdjRdYvmss86KUQm9uXsQjaEpjEz7NzfPQoChS39aes655xiTuv7xmjGiiUEtw1rcgdmesE/4kCCarDtgktEDX03ElqVFfRbolSivjAlXhR4DbBqcQqrVKnRCAk6lLCpw8VRinUIEUtavorrLisHIcq86ujE0PKSMLMlMZiUL2HzrFxrSw42ujtotZ0vLcInZChoGQUqJSeFpAJkuQLTqW/iYEpBJISubbiLRHIyZiFbPNswZ1nit8yqLEvI4Y6TFjikpIWoVMpI0rHt2zDWNoSELh6fAkcM/+eQT1rgojGTM+egfngRnllgewAJfopIzGLgh8hX3FV6NdGwmQk7uGJ4kG4TC/t1GtKokCm0OerLEM3H2KOqBAppCUYopHSVgI4G2hAlqRMO+6pWak/FSfkYfFtjOGytGmBfSB5VKmbPf18xQJgraIxXSqKMiSqguGorm4hEa4x2NyM9oOuCZQK/I2TEk0SRCzWs1mhx0BE4oOqBj6aVXaPbzpBtmnyO8Ejp79myoZ/v28/zn/V1J14lCJjvP5uXLl0NH5ALFmSs39WZ9P9DYTxlJO1RZBkH0p59+KjWUxfWro8x8BGj2GEUhw+AILkq3bd3m9BA1PkBLXv1a0g80+tNkZso45FJpJ27GSmkRmf0qOJIMTI2IluDjiBT2M/Wrr7+KLGONt72I+r5t6weaiAi55uKZFzslkWW7NW/evPhiG2NyYObpW93hbQWB8TOVRHcESIDlxtrmEx2pc+iQ9MuKHFC92dQPNLqRaH6OHTfWadiCSr2NnLXc98mYWfacvUk/wvXgEBrxA4QIasbLOC4PuIB2D+fsEque177N6wea6O+pgMZ2CyFWv/76a4Njm4COGPbU1Leyw9ea7Cs+WtlzG7AwJpCaN28+U6mWfSVNeyX1wd+3Pf1AU+pcIfq+++6LHbojpW0lXGxwDQtTUgB3HbCol/oeCRIicLHbZgl9wsS+xmq9Zs1qr4LI13chE60DMWjA0BRBQbRPt+TS6r7WZYV8bH/JJkT6gdrfUYQAe8wjX/vDczWwkBYdj00xttms2svERnGANg4UGgc5Wol2Der0gRYpro6ED0L4OGdH3GbF7Mv04SNAABfDQ3v8dJAuJqn3Ozv5GOGs5HbJgUMocWGAxgwUmizOQUbgxMHMgDg9UM84FoidyD5/BG13iuTc968lAnrzyJoQBwLyqaZR5eeff277jsdByS8o4HKw2g8aGsqq1aqPTeAXqOCIoFXPJkOnRoFaSkDpHH7QKgboQ0wiYRv5hTqFDaySB22+WCjpSr2uKA/BjIFGV5hLAfVUXnTRRXHdyQ5rOYPM5FBvcjHaMFrpbToNWvTKDpMQA17UmHS1DJUrSct09IouKoMQFPKIaKVdDfnRhNnrwu8XSoJ42Ombl+thS0fYlm0YCJGUDYSvzOPoywa6/djPZylNFLtkMz6sUUCjMtzQZOhg5Gmqh5xQmlXXAZF5wp+QAy9FVEKEal28BqcnjDCrtB1V1NBlE//oo486A5KQVecu/RKHBk3NJouC3zIyhZVux325dEFv0xyuegbs0jHjmC6VN6eLmCHg88ZcPIr6uIgMczErZHpCWYGFGapVJf6ivRx6aV/qcGBqL1u2jHCBaI/q255LlZAvQyP6haPM8KegYaKPLX5AO2/udw5VdLe2jjjjjMkTqxNd9LneVIMHMGGWpBy64zU/wVS2KTzPT00hJ/i9agJzV7fY5K6flHb+8suqRQsXbdy0Hs7umidPPvPuu+9xKwR9wvHnvmVFfdN/CpqwUtKd/cH7sz+c7cciRWSkzeHUqWePnzCR3TJxWMA462ydNWWLOVDXml8zGyLozs6O+PSyft0GPzb1NczYdA/y05CmCy+48Lbbbh89+vgA5RCmUs3gPgzKltURuQsra2G/b++8uXNfffXVzcX1YmG9XyC0+bB9+j9O981fjR/ZiKE6UeFnVGaxdTxeMxsCG28le+uAjdWmzRsFhqlG9JAhzbf8z6wrnQaGymvp42fu2FNmvzWHEjVZKCsDGgdMGWHN6tV+dOdThq8bxaEhzW3hfVJ7u68ipn3zUGf4WqJhdJ3dPaHBoDLqheS+jpRxBKlj9KpVq3fv3uu7eWeXf0s1aFiLny+PmzXr1mo1jQRM7E/r5GezB0j8KWjoCNObir+9/r5liwPEN998vWzZ8q1btvrhsGN7mDJMArZfPOYYq5XrYTcDw1rSb0WFvcINz+AEdyAOCNGhIOwGFGu2V+tRyt3FJcOIEcNPPXX89OnTpkydYiL7aWlK6uli9+CSbqguP/8aaCr+8VHhGKRsuXxGE0Fzv/120aLFGzemLMBtLfu605pa0LW8iFY4GSVbFtAk3IsvULDQ5M0z+GHa3n6C3yxMmXqWnxKBu5DcmXJ/AuU/B5q0bUunS3+lNcP/nV1++elos3jR4h+X/OiTpjPEtt3px6HZ/yDC4ew5Qve6ytzLft/FSLVanTbt7PYxoyHSVBlapHpfh8yitGaV/qtTdXCvfxhxcP0GwJ3dsyuxAyquLzw2bf49HbXMDv8eT/rodP4qUlZgCtjBfmPSPNj2x5eo4S0tI1rbjh01yr+zGz16lIQ1sm2U78QF/rVfmWTgBmDUQbAcRmiyFbFVLV7dKINChae/aw8gFukl7RtNL8dj087mMOdsfVVhK+ZdEyjV+BV1qEhBehjKkYCG24VLHIgtHyBEf5qCntmxFGVpe1jciqXpsX9mIcP5ogs6cepaqSX4wwBLEnkkoCmZnlz668phCZZs3sGdvHO3QyUOrzOHalXjfvXrRWOu/8rao9D0OuxHoekVmn8DoMCGCMHLoLwAAAAASUVORK5CYII=;" parent="1" vertex="1">
                    <mxGeometry x="460" y="220" width="27.65" height="20" as="geometry"/>
                </mxCell>
                <mxCell id="qq1t9xzWDP-lepQwqxWp-14" value="8两" style="text;html=1;align=center;verticalAlign=middle;resizable=0;points=[];autosize=1;strokeColor=none;fillColor=none;" parent="1" vertex="1">
                    <mxGeometry x="453.82" y="160" width="40" height="30" as="geometry"/>
                </mxCell>
                <mxCell id="qq1t9xzWDP-lepQwqxWp-15" value="2两" style="text;html=1;align=center;verticalAlign=middle;resizable=0;points=[];autosize=1;strokeColor=none;fillColor=none;" parent="1" vertex="1">
                    <mxGeometry x="453.81999999999994" y="236.38" width="40" height="30" as="geometry"/>
                </mxCell>
                <mxCell id="qq1t9xzWDP-lepQwqxWp-16" value="李四" style="text;html=1;align=center;verticalAlign=middle;resizable=0;points=[];autosize=1;strokeColor=none;fillColor=none;" parent="1" vertex="1">
                    <mxGeometry x="555" y="171.38" width="50" height="30" as="geometry"/>
                </mxCell>
                <mxCell id="qq1t9xzWDP-lepQwqxWp-17" value="张三" style="text;html=1;align=center;verticalAlign=middle;resizable=0;points=[];autosize=1;strokeColor=none;fillColor=none;" parent="1" vertex="1">
                    <mxGeometry x="154.99999999999997" y="206.38" width="50" height="30" as="geometry"/>
                </mxCell>
                <mxCell id="qq1t9xzWDP-lepQwqxWp-20" style="edgeStyle=none;html=1;exitX=1;exitY=0.5;exitDx=0;exitDy=0;entryX=0.5;entryY=1.054;entryDx=0;entryDy=0;entryPerimeter=0;" parent="1" source="qq1t9xzWDP-lepQwqxWp-12" target="qq1t9xzWDP-lepQwqxWp-17" edge="1">
                    <mxGeometry relative="1" as="geometry">
                        <Array as="points">
                            <mxPoint x="540" y="230"/>
                            <mxPoint x="540" y="270"/>
                            <mxPoint x="180" y="270"/>
                        </Array>
                    </mxGeometry>
                </mxCell>
                <mxCell id="qq1t9xzWDP-lepQwqxWp-29" style="edgeStyle=none;html=1;exitX=1;exitY=0.5;exitDx=0;exitDy=0;entryX=0;entryY=0.5;entryDx=0;entryDy=0;" parent="1" source="qq1t9xzWDP-lepQwqxWp-27" target="qq1t9xzWDP-lepQwqxWp-28" edge="1">
                    <mxGeometry relative="1" as="geometry">
                        <mxPoint x="340" y="400" as="sourcePoint"/>
                    </mxGeometry>
                </mxCell>
                <mxCell id="qq1t9xzWDP-lepQwqxWp-27" value="张三：300&lt;br&gt;李四：400&lt;br&gt;王五：500&lt;div&gt;...&lt;/div&gt;" style="rounded=0;whiteSpace=wrap;html=1;" parent="1" vertex="1">
                    <mxGeometry x="160" y="360" width="80" height="80" as="geometry"/>
                </mxCell>
                <mxCell id="qq1t9xzWDP-lepQwqxWp-28" value="张三：100&lt;br&gt;李四：600&lt;br&gt;王五：500&lt;div&gt;...&lt;/div&gt;" style="rounded=0;whiteSpace=wrap;html=1;" parent="1" vertex="1">
                    <mxGeometry x="390" y="360" width="80" height="80" as="geometry"/>
                </mxCell>
                <mxCell id="qq1t9xzWDP-lepQwqxWp-31" value="张三给李四转账200" style="text;html=1;align=center;verticalAlign=middle;resizable=0;points=[];autosize=1;strokeColor=none;fillColor=none;" parent="1" vertex="1">
                    <mxGeometry x="245.29" y="370" width="130" height="30" as="geometry"/>
                </mxCell>
                <mxCell id="qq1t9xzWDP-lepQwqxWp-34" value="" style="shape=cylinder3;whiteSpace=wrap;html=1;boundedLbl=1;backgroundOutline=1;size=9;" parent="1" vertex="1">
                    <mxGeometry x="140" y="420" width="30" height="40" as="geometry"/>
                </mxCell>
                <mxCell id="qq1t9xzWDP-lepQwqxWp-35" value="" style="shape=cylinder3;whiteSpace=wrap;html=1;boundedLbl=1;backgroundOutline=1;size=9;" parent="1" vertex="1">
                    <mxGeometry x="370" y="420" width="30" height="40" as="geometry"/>
                </mxCell>
                <mxCell id="qq1t9xzWDP-lepQwqxWp-36" value="转账前的状态" style="text;html=1;align=center;verticalAlign=middle;resizable=0;points=[];autosize=1;strokeColor=none;fillColor=none;" parent="1" vertex="1">
                    <mxGeometry x="160" y="440" width="100" height="30" as="geometry"/>
                </mxCell>
                <mxCell id="qq1t9xzWDP-lepQwqxWp-37" value="转账后的状态" style="text;html=1;align=center;verticalAlign=middle;resizable=0;points=[];autosize=1;strokeColor=none;fillColor=none;" parent="1" vertex="1">
                    <mxGeometry x="400" y="440" width="100" height="30" as="geometry"/>
                </mxCell>
                <mxCell id="qq1t9xzWDP-lepQwqxWp-39" value="" style="shape=image;verticalLabelPosition=bottom;labelBackgroundColor=default;verticalAlign=top;aspect=fixed;imageAspect=0;image=data:image/png,iVBORw0KGgoAAAANSUhEUgAAAF4AAABECAIAAACH/RXEAAAAAXNSR0IArs4c6QAAAERlWElmTU0AKgAAAAgAAYdpAAQAAAABAAAAGgAAAAAAA6ABAAMAAAABAAEAAKACAAQAAAABAAAAXqADAAQAAAABAAAARAAAAADlpIWbAAAVFElEQVR4Ae3b2Y9VxfYHcE7TQCPdIE6NMshBrwiK4hUV5zkOP3GIcXox8cnER/XFBxP/BBMTn3wwaoxTjMYY/ak/VDTen7MMAgqCICCDgMxTD/dTex3KzenTAyh4k0uhm7WrVq3hW6tWDftQ6e7uHnS0NEKgqVHl0bqEwFFoeo2Do9AchaZXBHptaO615XA2lHN/ma5UKl6bmpqisqurC80Q9YfTnMay/zZoeKuAQOns7Bw8eLBXWESJpsYmH6navwca/nd0dOwqytatW9euXfv777/v3LkTTEOGDDn22GPHjh3b1tY2fPjwESNGDBs2TOwA60hhUtMzIGhYHOzlwQw6PwdiN0SI2rZt27Jly3744YeVK1euX78eIvv27RM1mqIQRewxxxxz3HHHwegfRRkzZkzdxMLTm1JyQkgQwYYOa2OS9tY316eQzi89iWj1VMhVgsdrELxVybGefXONAInuouRfRfntt992794d0iKzkIMfW04uIVllxNHkyZOvv/76k046Sa+Q1oeH2bzgDMkEsjOe2bY+iH6g0ZNjzc3NJFIDkF27dvJKTWtrK+O00ue1Dx1SiZ6LFi164YUXgBKc+kaKIef4448/4YQThImmPXv2CCvRZIrlaFKPv6Wl5ZprrrnuuuuGDh3qtY/x6O5Kf4BIhagkk4W6m5scgXUf1uamxtDwJIYUQZZ0sHjx4q+++urnn39mN31hqCCfMWPGueeey7esL/cd1J3+6L5p06b3339fuIgaYqOvLuecc061WpVTsi4Efm5QgVkOWrBgwS+//ILmnlbl9NNPv+eee04++WQavf6hbr9P+m7evHnJkiXZ4Bg/0Jie/yzKqFGjaNFdp54SQlJjaAyXZj4Q+u2333700UcrVqygUiVxrNeERng14NRdcsklJ554YigznvTF0On45ptvMrQIuy42nX322eedd55cGwLDMh1Tl/3zNF49lY0bNy5dunTu3LkgDp7Ro0fffvvt06dPFwUsFEThjKeR+/+iABQzO6MLOZlH98svv5zBCPXhTpkhOHuFhtAdO3b8X1FixAIIYZ9HlW/Y1BtAUXDbbbcJBDUBDQXLly9/5plnYhKpnDRp0h133HHKKadYerZv385nPExnVliW3fAadPhGEf758xd88cXnho1G0/DGG2+84ooroBPMRIHjpZdekt1NeR2j3hoHu71798YKqBKavDBC9957L4LxdOEPRPKzMTQ6g+Ozzz574403ELzSn9uiY+TIkQGN8YlZBsEQTfqsWbOuvfZaDGqY+PTTT2/ZsiVauQEXTaTh3LBhA2/L0GQ4ENk+faNeL1YJn3feeYfnwDJB7r777pkXzWwanEJj/vz5zz33XBjjlSIz3XxnMGj0NU66m6H6KsRefPHF999/P8lhYVYaxOAnnniirsor1nXr1r388sv892qmRAAb7UDXk2Xjxo2DFyNkTbr1+vHHHw3phAkTzPYXX3zx119/1d3IwOvSSy81mxhk2OESYxjSwgDdg2j41Kqv2Bw/fjwnDRiNP/30U3VSVQR99913r7zyClz4LI6mTp165513Tps2jeqawZUmiU93qYpT4dfq1au5IGOSrNTp7RWa9957z5qiQ1tr21133dU+pr2up1etoomtFECHZXBht+f3RcEDuKuvvvrCCy9UyR9FUveM7j1l9l1DIyBAH7NG+FBnyrz22mtWNPBJ6ldddZU8ojLQrAmsDIJarK0MxgwdqAHXmDFyoNAQ8fzzz0cyvunmm8ZPGN+zZ/hGPQWC9tRTT5U7qFRvITMgmlhjHt1www3HHXc8abGOwij61ow+yL9Ywn8rFK8EjllpXhsV9cwwo88444xIH3VaGLNr565Y1MXvqlWripHac9ppp7W3t/d0sD73hJ12q8aWb3L4mWeeWacj+4IBHU87V3lRcHqlktEgkHdvuummIj2Z0emU5KkLNLXGM0vrSeBXCCQNgSGeakBz2WWXgUBlxKAwMYlEBLFhkqZMoNVXUmpOhUl2j9H65ZdfltlwRmkMjXSFW5k4caInofv5G/+Ngc/0QcdUj9VU5IsXFutjgbA3KUQmaQqvDGMg1VhosTmAIE8EPJ7CqVpGQNsfm1lROXToMHtlePUtMCvCJlKIZZKsGuDm1iAa+yxqqMRhz1LXoeErBXygr3VEK1zQtNq8GJmwVcDH9MRp3r399tv2Y9i8NhQYlWwAH9OtShK8Sl0yvxQrhRkJNYwNPwkMsDJbTyKsDU5PuJjpPdkaQ2N9oUA3I8+3skE9RUQNZmXJ0iUCRFCIIDPRU6u9n0qtaLHz7LPPPvbYY4888ogTZt/okMPoJ5988vHHH3/44YdjH5QN0Ff6N4OYSr6MY97p4jXz1BHhCI51a9cu/P77jn0d6H179/ovzCvzN4AGU0dHWvYVQ2HcEOU+PWkGiQBxITWyEj+jLflmDWQ7uzo1JXGVimX7ww8/lOYRr7/+uo4hradlUb9h/Qa7TkEHxw8++ICEsnbybbX0rQyqiHTjz/nwv8yW6QDO6vbpJ5/u2L49hOHPsVs2owE0BLW1tWJS+JDl9kGQbh8nc1uhCk3dEkHwE9LZAd7OqMdgc+yVG8a5b/miYP2G9UKYECjYrdVBQ4V9SjqFNVWIcuZK8B8IXzabNGXe3HlzPp4jTjKfwSM8s2WiATT6yBE8QcTij5txZZWF3NoAGjGtihAb3jLc085K1JAAhYTXloSXLozwRDNFQcSaQX5ZePnVhIoumBVasukOqvFq9Y1WgZPsKEqw6aug1YHY6WrB9wu8jRo5qlqd5MrAZLdqDB/ekvmz/AbQaDOBQ4GNnBHmUkhnQUEXR7Jie54EFRCxwOjdcOMNVutbbrnFvlmNUXImlF8SV/GqXiFcDQSbh6SlJ+QXkmooo/GIf4sOENG6OzerzyWCQ5MIDYGasMWs4TM6IEPYvr777rs2XNw5eczJl152KWsp0TRiRCuTEFlyEI3vWezfIgvICOwOxd98841TVXGm/ydZ3M6ygpl03trgCBw25dZMYNBqS2bRwWOX3Dy4uaMzycGfjPOnMDFe6XUW5Xkk7CuvvDKLKhN4br75Zoc1C5YuilYHK0JoEfiy1cKFC9Wzc8qUKeedO53xxd49QWMHIHzKAoNuUKVh4sSJ4Z4ZISmgiXCxILw//vhjc96h/rRJpxnz8EQXitEKg8K4nsq0gubBBx8UjI45t956q72pOWUk58yZU01l0nvv/a/0gYruxvahhx566qmnbHN5VUPwQNHGyUYhbKjhUtyT8R8iJEtwVA8b1jJjxvlpK9Q9yHiY5k5Vgsv9KvMHRfCXJDeGxt7EnJLJSXfhojPRdp9QX7lipUX0rbfeEurO9fa7bW0j5WAy8cTI9AZN1J9//vmvvfra4OZ0/tYLOgIT+nLBmDE7ly9fDinabVgQ6u3lHIuY5JWKkvE1MvDSpAQtUlxQ2DpJzFywAxJZkLWZwKPbbkc5J2f7pu7OsePHNQDG6a+nJjX625Ws+HkFo8VITGZ4G3MqXW6ZtGvWrKFYjdmHIdKTjuF/JhrKjxSTQwAzu63N7qssW6tWrXJdIMXkvpFu8tTO9UHorhR6K/Ka2wkBbs7GDsvgXXDBBe4JqItCjgxoNugFMi7oi64T2xgaTE70pijIHRqsi4LWoI1sGymCYAEU2xPomBomHbAo0IWHpgDdmOs09faKmcW23W5zEALEmBc58oAesQ6WHYgxwKRSR2nR1YQZZA8VeysXiS5DqtUqTq3hv1DFbIBDlAud5mZjkNJTXekVGnIt4ZynCTrmDlmmKNFGQDJ64IEHzLgvvvhCBOExSm5noCm4XOKATxhThj9GG5GdCSJqGBo2xclLR6904VHCgcRQGSQrYVapIyK6e0ULN7coBtIEVADtXsJQaSLB6TwIzCSx1tBCQ6oWUJAsR2jSVZTG0BDhiGC/wFuOzZ8335ShMvpkc7lhQRU1Pyz+YcXKFbKdtC83AUumsFqZZfCFsigAqEp9uRRyaAlRiEzXqfCqKVDgubJn957tO7azinw5igRum0eEszlWNKHNWpEbIRm7B6Iwk8Y8XWDN+PaT2gEUZoTq/GwMDaE0gcOCbVVau26toKA1pOfOCLodYfk/Y9cM6VmgggYza4yMoDMgRMFFCmQ6jBCKGSqsNPGBEKIYHZLDW9YzY/duZ78dppiRJ98GEs0kYu2eJoyfkNa4piZX6Mwg1kVMJCai1BMlp8T8CvTJtMcJeubMmQBCx2toz8/G0GgmVFBQxibSl/20DMZ1IryGIMz8VMBnAcJvbjsrm3ESXjgWR1acLA6jKbG0wSXQ0aQQCBTRIey5ESossf5EUak7ZJORTZWufWmBc/UhxsMYTwyYPTEL5OgSrQwrdjRdYvmss86KUQm9uXsQjaEpjEz7NzfPQoChS39aes655xiTuv7xmjGiiUEtw1rcgdmesE/4kCCarDtgktEDX03ElqVFfRbolSivjAlXhR4DbBqcQqrVKnRCAk6lLCpw8VRinUIEUtavorrLisHIcq86ujE0PKSMLMlMZiUL2HzrFxrSw42ujtotZ0vLcInZChoGQUqJSeFpAJkuQLTqW/iYEpBJISubbiLRHIyZiFbPNswZ1nit8yqLEvI4Y6TFjikpIWoVMpI0rHt2zDWNoSELh6fAkcM/+eQT1rgojGTM+egfngRnllgewAJfopIzGLgh8hX3FV6NdGwmQk7uGJ4kG4TC/t1GtKokCm0OerLEM3H2KOqBAppCUYopHSVgI4G2hAlqRMO+6pWak/FSfkYfFtjOGytGmBfSB5VKmbPf18xQJgraIxXSqKMiSqguGorm4hEa4x2NyM9oOuCZQK/I2TEk0SRCzWs1mhx0BE4oOqBj6aVXaPbzpBtmnyO8Ejp79myoZ/v28/zn/V1J14lCJjvP5uXLl0NH5ALFmSs39WZ9P9DYTxlJO1RZBkH0p59+KjWUxfWro8x8BGj2GEUhw+AILkq3bd3m9BA1PkBLXv1a0g80+tNkZso45FJpJ27GSmkRmf0qOJIMTI2IluDjiBT2M/Wrr7+KLGONt72I+r5t6weaiAi55uKZFzslkWW7NW/evPhiG2NyYObpW93hbQWB8TOVRHcESIDlxtrmEx2pc+iQ9MuKHFC92dQPNLqRaH6OHTfWadiCSr2NnLXc98mYWfacvUk/wvXgEBrxA4QIasbLOC4PuIB2D+fsEque177N6wea6O+pgMZ2CyFWv/76a4Njm4COGPbU1Leyw9ea7Cs+WtlzG7AwJpCaN28+U6mWfSVNeyX1wd+3Pf1AU+pcIfq+++6LHbojpW0lXGxwDQtTUgB3HbCol/oeCRIicLHbZgl9wsS+xmq9Zs1qr4LI13chE60DMWjA0BRBQbRPt+TS6r7WZYV8bH/JJkT6gdrfUYQAe8wjX/vDczWwkBYdj00xttms2svERnGANg4UGgc5Wol2Der0gRYpro6ED0L4OGdH3GbF7Mv04SNAABfDQ3v8dJAuJqn3Ozv5GOGs5HbJgUMocWGAxgwUmizOQUbgxMHMgDg9UM84FoidyD5/BG13iuTc968lAnrzyJoQBwLyqaZR5eeff277jsdByS8o4HKw2g8aGsqq1aqPTeAXqOCIoFXPJkOnRoFaSkDpHH7QKgboQ0wiYRv5hTqFDaySB22+WCjpSr2uKA/BjIFGV5hLAfVUXnTRRXHdyQ5rOYPM5FBvcjHaMFrpbToNWvTKDpMQA17UmHS1DJUrSct09IouKoMQFPKIaKVdDfnRhNnrwu8XSoJ42Ombl+thS0fYlm0YCJGUDYSvzOPoywa6/djPZylNFLtkMz6sUUCjMtzQZOhg5Gmqh5xQmlXXAZF5wp+QAy9FVEKEal28BqcnjDCrtB1V1NBlE//oo486A5KQVecu/RKHBk3NJouC3zIyhZVux325dEFv0xyuegbs0jHjmC6VN6eLmCHg88ZcPIr6uIgMczErZHpCWYGFGapVJf6ivRx6aV/qcGBqL1u2jHCBaI/q255LlZAvQyP6haPM8KegYaKPLX5AO2/udw5VdLe2jjjjjMkTqxNd9LneVIMHMGGWpBy64zU/wVS2KTzPT00hJ/i9agJzV7fY5K6flHb+8suqRQsXbdy0Hs7umidPPvPuu+9xKwR9wvHnvmVFfdN/CpqwUtKd/cH7sz+c7cciRWSkzeHUqWePnzCR3TJxWMA462ydNWWLOVDXml8zGyLozs6O+PSyft0GPzb1NczYdA/y05CmCy+48Lbbbh89+vgA5RCmUs3gPgzKltURuQsra2G/b++8uXNfffXVzcX1YmG9XyC0+bB9+j9O981fjR/ZiKE6UeFnVGaxdTxeMxsCG28le+uAjdWmzRsFhqlG9JAhzbf8z6wrnQaGymvp42fu2FNmvzWHEjVZKCsDGgdMGWHN6tV+dOdThq8bxaEhzW3hfVJ7u68ipn3zUGf4WqJhdJ3dPaHBoDLqheS+jpRxBKlj9KpVq3fv3uu7eWeXf0s1aFiLny+PmzXr1mo1jQRM7E/r5GezB0j8KWjoCNObir+9/r5liwPEN998vWzZ8q1btvrhsGN7mDJMArZfPOYYq5XrYTcDw1rSb0WFvcINz+AEdyAOCNGhIOwGFGu2V+tRyt3FJcOIEcNPPXX89OnTpkydYiL7aWlK6uli9+CSbqguP/8aaCr+8VHhGKRsuXxGE0Fzv/120aLFGzemLMBtLfu605pa0LW8iFY4GSVbFtAk3IsvULDQ5M0z+GHa3n6C3yxMmXqWnxKBu5DcmXJ/AuU/B5q0bUunS3+lNcP/nV1++elos3jR4h+X/OiTpjPEtt3px6HZ/yDC4ew5Qve6ytzLft/FSLVanTbt7PYxoyHSVBlapHpfh8yitGaV/qtTdXCvfxhxcP0GwJ3dsyuxAyquLzw2bf49HbXMDv8eT/rodP4qUlZgCtjBfmPSPNj2x5eo4S0tI1rbjh01yr+zGz16lIQ1sm2U78QF/rVfmWTgBmDUQbAcRmiyFbFVLV7dKINChae/aw8gFukl7RtNL8dj087mMOdsfVVhK+ZdEyjV+BV1qEhBehjKkYCG24VLHIgtHyBEf5qCntmxFGVpe1jciqXpsX9mIcP5ogs6cepaqSX4wwBLEnkkoCmZnlz668phCZZs3sGdvHO3QyUOrzOHalXjfvXrRWOu/8rao9D0OuxHoekVmn8DoMCGCMHLoLwAAAAASUVORK5CYII=;" parent="1" vertex="1">
                    <mxGeometry x="443.9" y="128" width="56.1" height="40.59" as="geometry"/>
                </mxCell>
                <mxCell id="njs6Gou2WWdZa5OVwUBk-2" value="&amp;nbsp;交易记录2&lt;br&gt;（输出）" style="rounded=1;whiteSpace=wrap;html=1;" parent="1" vertex="1">
                    <mxGeometry x="440" y="520" width="80" height="40" as="geometry"/>
                </mxCell>
                <mxCell id="gyaGIgvPLKoKmxf6FDBj-10" style="edgeStyle=none;html=1;entryX=0.5;entryY=1;entryDx=0;entryDy=0;" parent="1" source="gyaGIgvPLKoKmxf6FDBj-13" target="gyaGIgvPLKoKmxf6FDBj-3" edge="1">
                    <mxGeometry relative="1" as="geometry">
                        <Array as="points"/>
                    </mxGeometry>
                </mxCell>
                <mxCell id="njs6Gou2WWdZa5OVwUBk-3" value="&amp;nbsp;交易记录3&lt;br&gt;（输出）" style="rounded=1;whiteSpace=wrap;html=1;" parent="1" vertex="1">
                    <mxGeometry x="440" y="600" width="80" height="40" as="geometry"/>
                </mxCell>
                <mxCell id="njs6Gou2WWdZa5OVwUBk-9" value="" style="edgeStyle=none;html=1;exitX=1;exitY=0.5;exitDx=0;exitDy=0;entryX=0;entryY=0.5;entryDx=0;entryDy=0;" parent="1" source="njs6Gou2WWdZa5OVwUBk-4" target="njs6Gou2WWdZa5OVwUBk-1" edge="1">
                    <mxGeometry relative="1" as="geometry">
                        <mxPoint x="400" y="580" as="sourcePoint"/>
                        <mxPoint x="440" y="540" as="targetPoint"/>
                        <Array as="points"/>
                    </mxGeometry>
                </mxCell>
                <mxCell id="njs6Gou2WWdZa5OVwUBk-1" value="&amp;nbsp;交易记录1&lt;br&gt;（输入）" style="rounded=1;whiteSpace=wrap;html=1;" parent="1" vertex="1">
                    <mxGeometry x="238.65" y="560" width="80" height="40" as="geometry"/>
                </mxCell>
                <mxCell id="gyaGIgvPLKoKmxf6FDBj-8" style="edgeStyle=none;html=1;exitX=0.5;exitY=0;exitDx=0;exitDy=0;entryX=0;entryY=0.5;entryDx=0;entryDy=0;" parent="1" source="njs6Gou2WWdZa5OVwUBk-4" target="njs6Gou2WWdZa5OVwUBk-2" edge="1">
                    <mxGeometry relative="1" as="geometry">
                        <Array as="points">
                            <mxPoint x="380" y="540"/>
                        </Array>
                    </mxGeometry>
                </mxCell>
                <mxCell id="gyaGIgvPLKoKmxf6FDBj-9" style="edgeStyle=none;html=1;exitX=0.5;exitY=1;exitDx=0;exitDy=0;entryX=0;entryY=0.5;entryDx=0;entryDy=0;" parent="1" source="njs6Gou2WWdZa5OVwUBk-4" target="njs6Gou2WWdZa5OVwUBk-3" edge="1">
                    <mxGeometry relative="1" as="geometry">
                        <Array as="points">
                            <mxPoint x="380" y="620"/>
                        </Array>
                    </mxGeometry>
                </mxCell>
                <mxCell id="njs6Gou2WWdZa5OVwUBk-4" value="交易" style="ellipse;whiteSpace=wrap;html=1;aspect=fixed;" parent="1" vertex="1">
                    <mxGeometry x="360" y="560" width="40" height="40" as="geometry"/>
                </mxCell>
                <mxCell id="gyaGIgvPLKoKmxf6FDBj-2" value="" style="edgeStyle=none;html=1;entryX=0;entryY=0.5;entryDx=0;entryDy=0;endArrow=none;endFill=0;" parent="1" target="gyaGIgvPLKoKmxf6FDBj-1" edge="1">
                    <mxGeometry relative="1" as="geometry">
                        <mxPoint x="310" y="190" as="sourcePoint"/>
                        <mxPoint x="440" y="150" as="targetPoint"/>
                        <Array as="points"/>
                    </mxGeometry>
                </mxCell>
                <mxCell id="gyaGIgvPLKoKmxf6FDBj-1" value="交易" style="ellipse;whiteSpace=wrap;html=1;aspect=fixed;" parent="1" vertex="1">
                    <mxGeometry x="360" y="170.38" width="40" height="40" as="geometry"/>
                </mxCell>
                <mxCell id="gyaGIgvPLKoKmxf6FDBj-4" style="edgeStyle=none;html=1;entryX=0;entryY=0.5;entryDx=0;entryDy=0;" parent="1" target="njs6Gou2WWdZa5OVwUBk-1" edge="1">
                    <mxGeometry relative="1" as="geometry">
                        <mxPoint x="210" y="580" as="sourcePoint"/>
                    </mxGeometry>
                </mxCell>
                <mxCell id="gyaGIgvPLKoKmxf6FDBj-3" value="" style="shape=actor;whiteSpace=wrap;html=1;" parent="1" vertex="1">
                    <mxGeometry x="160" y="560" width="40" height="40" as="geometry"/>
                </mxCell>
                <mxCell id="gyaGIgvPLKoKmxf6FDBj-5" value="" style="shape=actor;whiteSpace=wrap;html=1;" parent="1" vertex="1">
                    <mxGeometry x="560" y="520" width="40" height="40" as="geometry"/>
                </mxCell>
                <mxCell id="gyaGIgvPLKoKmxf6FDBj-6" style="edgeStyle=none;html=1;exitX=1;exitY=0.5;exitDx=0;exitDy=0;" parent="1" source="njs6Gou2WWdZa5OVwUBk-2" edge="1">
                    <mxGeometry relative="1" as="geometry">
                        <mxPoint x="550" y="540" as="targetPoint"/>
                    </mxGeometry>
                </mxCell>
                <mxCell id="gyaGIgvPLKoKmxf6FDBj-11" value="李四" style="text;html=1;align=center;verticalAlign=middle;resizable=0;points=[];autosize=1;strokeColor=none;fillColor=none;" parent="1" vertex="1">
                    <mxGeometry x="555" y="560" width="50" height="30" as="geometry"/>
                </mxCell>
                <mxCell id="gyaGIgvPLKoKmxf6FDBj-14" value="" style="edgeStyle=none;html=1;entryX=0.5;entryY=1;entryDx=0;entryDy=0;" parent="1" source="njs6Gou2WWdZa5OVwUBk-3" target="gyaGIgvPLKoKmxf6FDBj-13" edge="1">
                    <mxGeometry relative="1" as="geometry">
                        <mxPoint x="520" y="620" as="sourcePoint"/>
                        <mxPoint x="180" y="600" as="targetPoint"/>
                        <Array as="points">
                            <mxPoint x="560" y="620"/>
                            <mxPoint x="560" y="660"/>
                            <mxPoint x="180" y="660"/>
                        </Array>
                    </mxGeometry>
                </mxCell>
                <mxCell id="gyaGIgvPLKoKmxf6FDBj-13" value="张三" style="text;html=1;align=center;verticalAlign=middle;resizable=0;points=[];autosize=1;strokeColor=none;fillColor=none;" parent="1" vertex="1">
                    <mxGeometry x="154.99999999999997" y="600" width="50" height="30" as="geometry"/>
                </mxCell>
            </root>
        </mxGraphModel>
    </diagram>
    <diagram id="Ebr28DfXhQc9Na8PxloD" name="Credits">
        <mxGraphModel dx="240" dy="217" grid="1" gridSize="10" guides="1" tooltips="1" connect="1" arrows="1" fold="1" page="1" pageScale="1" pageWidth="827" pageHeight="1169" math="0" shadow="0">
            <root>
                <mxCell id="0"/>
                <mxCell id="1" parent="0"/>
                <mxCell id="NWYfTQyk7NtsMeiNhzDC-1" value="" style="shape=table;startSize=0;container=1;collapsible=0;childLayout=tableLayout;" parent="1" vertex="1">
                    <mxGeometry x="280" y="160" width="400" height="200" as="geometry"/>
                </mxCell>
                <mxCell id="NWYfTQyk7NtsMeiNhzDC-2" value="" style="shape=tableRow;horizontal=0;startSize=0;swimlaneHead=0;swimlaneBody=0;strokeColor=inherit;top=0;left=0;bottom=0;right=0;collapsible=0;dropTarget=0;fillColor=none;points=[[0,0.5],[1,0.5]];portConstraint=eastwest;" parent="NWYfTQyk7NtsMeiNhzDC-1" vertex="1">
                    <mxGeometry width="400" height="33" as="geometry"/>
                </mxCell>
                <mxCell id="NWYfTQyk7NtsMeiNhzDC-3" value="日期" style="shape=partialRectangle;html=1;whiteSpace=wrap;connectable=0;strokeColor=inherit;overflow=hidden;fillColor=none;top=0;left=0;bottom=0;right=0;pointerEvents=1;" parent="NWYfTQyk7NtsMeiNhzDC-2" vertex="1">
                    <mxGeometry width="80" height="33" as="geometry">
                        <mxRectangle width="80" height="33" as="alternateBounds"/>
                    </mxGeometry>
                </mxCell>
                <mxCell id="NWYfTQyk7NtsMeiNhzDC-4" value="操作" style="shape=partialRectangle;html=1;whiteSpace=wrap;connectable=0;strokeColor=inherit;overflow=hidden;fillColor=none;top=0;left=0;bottom=0;right=0;pointerEvents=1;" parent="NWYfTQyk7NtsMeiNhzDC-2" vertex="1">
                    <mxGeometry x="80" width="80" height="33" as="geometry">
                        <mxRectangle width="80" height="33" as="alternateBounds"/>
                    </mxGeometry>
                </mxCell>
                <mxCell id="NWYfTQyk7NtsMeiNhzDC-5" value="学生" style="shape=partialRectangle;html=1;whiteSpace=wrap;connectable=0;strokeColor=inherit;overflow=hidden;fillColor=none;top=0;left=0;bottom=0;right=0;pointerEvents=1;" parent="NWYfTQyk7NtsMeiNhzDC-2" vertex="1">
                    <mxGeometry x="160" width="80" height="33" as="geometry">
                        <mxRectangle width="80" height="33" as="alternateBounds"/>
                    </mxGeometry>
                </mxCell>
                <mxCell id="NWYfTQyk7NtsMeiNhzDC-6" value="积分" style="shape=partialRectangle;html=1;whiteSpace=wrap;connectable=0;strokeColor=inherit;overflow=hidden;fillColor=none;top=0;left=0;bottom=0;right=0;pointerEvents=1;" parent="NWYfTQyk7NtsMeiNhzDC-2" vertex="1">
                    <mxGeometry x="240" width="80" height="33" as="geometry">
                        <mxRectangle width="80" height="33" as="alternateBounds"/>
                    </mxGeometry>
                </mxCell>
                <mxCell id="NWYfTQyk7NtsMeiNhzDC-22" value="状态" style="shape=partialRectangle;html=1;whiteSpace=wrap;connectable=0;strokeColor=inherit;overflow=hidden;fillColor=none;top=0;left=0;bottom=0;right=0;pointerEvents=1;" parent="NWYfTQyk7NtsMeiNhzDC-2" vertex="1">
                    <mxGeometry x="320" width="80" height="33" as="geometry">
                        <mxRectangle width="80" height="33" as="alternateBounds"/>
                    </mxGeometry>
                </mxCell>
                <mxCell id="NWYfTQyk7NtsMeiNhzDC-7" value="" style="shape=tableRow;horizontal=0;startSize=0;swimlaneHead=0;swimlaneBody=0;strokeColor=inherit;top=0;left=0;bottom=0;right=0;collapsible=0;dropTarget=0;fillColor=none;points=[[0,0.5],[1,0.5]];portConstraint=eastwest;" parent="NWYfTQyk7NtsMeiNhzDC-1" vertex="1">
                    <mxGeometry y="33" width="400" height="34" as="geometry"/>
                </mxCell>
                <mxCell id="NWYfTQyk7NtsMeiNhzDC-8" value="251001" style="shape=partialRectangle;html=1;whiteSpace=wrap;connectable=0;strokeColor=inherit;overflow=hidden;fillColor=none;top=0;left=0;bottom=0;right=0;pointerEvents=1;" parent="NWYfTQyk7NtsMeiNhzDC-7" vertex="1">
                    <mxGeometry width="80" height="34" as="geometry">
                        <mxRectangle width="80" height="34" as="alternateBounds"/>
                    </mxGeometry>
                </mxCell>
                <mxCell id="NWYfTQyk7NtsMeiNhzDC-9" value="发放积分" style="shape=partialRectangle;html=1;whiteSpace=wrap;connectable=0;strokeColor=inherit;overflow=hidden;fillColor=none;top=0;left=0;bottom=0;right=0;pointerEvents=1;" parent="NWYfTQyk7NtsMeiNhzDC-7" vertex="1">
                    <mxGeometry x="80" width="80" height="34" as="geometry">
                        <mxRectangle width="80" height="34" as="alternateBounds"/>
                    </mxGeometry>
                </mxCell>
                <mxCell id="NWYfTQyk7NtsMeiNhzDC-10" value="张三" style="shape=partialRectangle;html=1;whiteSpace=wrap;connectable=0;strokeColor=inherit;overflow=hidden;fillColor=none;top=0;left=0;bottom=0;right=0;pointerEvents=1;" parent="NWYfTQyk7NtsMeiNhzDC-7" vertex="1">
                    <mxGeometry x="160" width="80" height="34" as="geometry">
                        <mxRectangle width="80" height="34" as="alternateBounds"/>
                    </mxGeometry>
                </mxCell>
                <mxCell id="NWYfTQyk7NtsMeiNhzDC-11" value="+100" style="shape=partialRectangle;html=1;whiteSpace=wrap;connectable=0;strokeColor=inherit;overflow=hidden;fillColor=none;top=0;left=0;bottom=0;right=0;pointerEvents=1;" parent="NWYfTQyk7NtsMeiNhzDC-7" vertex="1">
                    <mxGeometry x="240" width="80" height="34" as="geometry">
                        <mxRectangle width="80" height="34" as="alternateBounds"/>
                    </mxGeometry>
                </mxCell>
                <mxCell id="NWYfTQyk7NtsMeiNhzDC-23" value="已兑换" style="shape=partialRectangle;html=1;whiteSpace=wrap;connectable=0;strokeColor=inherit;overflow=hidden;fillColor=none;top=0;left=0;bottom=0;right=0;pointerEvents=1;" parent="NWYfTQyk7NtsMeiNhzDC-7" vertex="1">
                    <mxGeometry x="320" width="80" height="34" as="geometry">
                        <mxRectangle width="80" height="34" as="alternateBounds"/>
                    </mxGeometry>
                </mxCell>
                <mxCell id="NWYfTQyk7NtsMeiNhzDC-12" value="" style="shape=tableRow;horizontal=0;startSize=0;swimlaneHead=0;swimlaneBody=0;strokeColor=inherit;top=0;left=0;bottom=0;right=0;collapsible=0;dropTarget=0;fillColor=none;points=[[0,0.5],[1,0.5]];portConstraint=eastwest;" parent="NWYfTQyk7NtsMeiNhzDC-1" vertex="1">
                    <mxGeometry y="67" width="400" height="33" as="geometry"/>
                </mxCell>
                <mxCell id="NWYfTQyk7NtsMeiNhzDC-13" value="251002" style="shape=partialRectangle;html=1;whiteSpace=wrap;connectable=0;strokeColor=inherit;overflow=hidden;fillColor=none;top=0;left=0;bottom=0;right=0;pointerEvents=1;" parent="NWYfTQyk7NtsMeiNhzDC-12" vertex="1">
                    <mxGeometry width="80" height="33" as="geometry">
                        <mxRectangle width="80" height="33" as="alternateBounds"/>
                    </mxGeometry>
                </mxCell>
                <mxCell id="NWYfTQyk7NtsMeiNhzDC-48" value="" style="rounded=0;whiteSpace=wrap;html=1;fillColor=#000000;" parent="NWYfTQyk7NtsMeiNhzDC-13" vertex="1">
                    <mxGeometry x="-5" y="11" width="10" height="10" as="geometry"/>
                </mxCell>
                <mxCell id="NWYfTQyk7NtsMeiNhzDC-14" value="发放积分" style="shape=partialRectangle;html=1;whiteSpace=wrap;connectable=0;strokeColor=inherit;overflow=hidden;fillColor=none;top=0;left=0;bottom=0;right=0;pointerEvents=1;" parent="NWYfTQyk7NtsMeiNhzDC-12" vertex="1">
                    <mxGeometry x="80" width="80" height="33" as="geometry">
                        <mxRectangle width="80" height="33" as="alternateBounds"/>
                    </mxGeometry>
                </mxCell>
                <mxCell id="NWYfTQyk7NtsMeiNhzDC-15" value="张三" style="shape=partialRectangle;html=1;whiteSpace=wrap;connectable=0;strokeColor=inherit;overflow=hidden;fillColor=none;top=0;left=0;bottom=0;right=0;pointerEvents=1;" parent="NWYfTQyk7NtsMeiNhzDC-12" vertex="1">
                    <mxGeometry x="160" width="80" height="33" as="geometry">
                        <mxRectangle width="80" height="33" as="alternateBounds"/>
                    </mxGeometry>
                </mxCell>
                <mxCell id="NWYfTQyk7NtsMeiNhzDC-16" value="+100" style="shape=partialRectangle;html=1;whiteSpace=wrap;connectable=0;strokeColor=inherit;overflow=hidden;fillColor=none;top=0;left=0;bottom=0;right=0;pointerEvents=1;" parent="NWYfTQyk7NtsMeiNhzDC-12" vertex="1">
                    <mxGeometry x="240" width="80" height="33" as="geometry">
                        <mxRectangle width="80" height="33" as="alternateBounds"/>
                    </mxGeometry>
                </mxCell>
                <mxCell id="NWYfTQyk7NtsMeiNhzDC-24" value="已兑换" style="shape=partialRectangle;html=1;whiteSpace=wrap;connectable=0;strokeColor=inherit;overflow=hidden;fillColor=none;top=0;left=0;bottom=0;right=0;pointerEvents=1;" parent="NWYfTQyk7NtsMeiNhzDC-12" vertex="1">
                    <mxGeometry x="320" width="80" height="33" as="geometry">
                        <mxRectangle width="80" height="33" as="alternateBounds"/>
                    </mxGeometry>
                </mxCell>
                <mxCell id="NWYfTQyk7NtsMeiNhzDC-49" value="" style="edgeStyle=none;html=1;exitX=0;exitY=0.5;exitDx=0;exitDy=0;entryX=0;entryY=0.5;entryDx=0;entryDy=0;" parent="NWYfTQyk7NtsMeiNhzDC-12" source="NWYfTQyk7NtsMeiNhzDC-12" target="NWYfTQyk7NtsMeiNhzDC-48" edge="1">
                    <mxGeometry relative="1" as="geometry">
                        <mxPoint x="280" y="240" as="sourcePoint"/>
                        <mxPoint x="280" y="304" as="targetPoint"/>
                        <Array as="points"/>
                    </mxGeometry>
                </mxCell>
                <mxCell id="NWYfTQyk7NtsMeiNhzDC-17" value="" style="shape=tableRow;horizontal=0;startSize=0;swimlaneHead=0;swimlaneBody=0;strokeColor=inherit;top=0;left=0;bottom=0;right=0;collapsible=0;dropTarget=0;fillColor=none;points=[[0,0.5],[1,0.5]];portConstraint=eastwest;" parent="NWYfTQyk7NtsMeiNhzDC-1" vertex="1">
                    <mxGeometry y="100" width="400" height="33" as="geometry"/>
                </mxCell>
                <mxCell id="NWYfTQyk7NtsMeiNhzDC-18" value="251003" style="shape=partialRectangle;html=1;whiteSpace=wrap;connectable=0;strokeColor=inherit;overflow=hidden;fillColor=none;top=0;left=0;bottom=0;right=0;pointerEvents=1;" parent="NWYfTQyk7NtsMeiNhzDC-17" vertex="1">
                    <mxGeometry width="80" height="33" as="geometry">
                        <mxRectangle width="80" height="33" as="alternateBounds"/>
                    </mxGeometry>
                </mxCell>
                <mxCell id="NWYfTQyk7NtsMeiNhzDC-19" value="发放积分" style="shape=partialRectangle;html=1;whiteSpace=wrap;connectable=0;strokeColor=inherit;overflow=hidden;fillColor=none;top=0;left=0;bottom=0;right=0;pointerEvents=1;" parent="NWYfTQyk7NtsMeiNhzDC-17" vertex="1">
                    <mxGeometry x="80" width="80" height="33" as="geometry">
                        <mxRectangle width="80" height="33" as="alternateBounds"/>
                    </mxGeometry>
                </mxCell>
                <mxCell id="NWYfTQyk7NtsMeiNhzDC-20" value="李四" style="shape=partialRectangle;html=1;whiteSpace=wrap;connectable=0;strokeColor=inherit;overflow=hidden;fillColor=none;top=0;left=0;bottom=0;right=0;pointerEvents=1;" parent="NWYfTQyk7NtsMeiNhzDC-17" vertex="1">
                    <mxGeometry x="160" width="80" height="33" as="geometry">
                        <mxRectangle width="80" height="33" as="alternateBounds"/>
                    </mxGeometry>
                </mxCell>
                <mxCell id="NWYfTQyk7NtsMeiNhzDC-21" value="+100" style="shape=partialRectangle;html=1;whiteSpace=wrap;connectable=0;strokeColor=inherit;overflow=hidden;fillColor=none;top=0;left=0;bottom=0;right=0;pointerEvents=1;" parent="NWYfTQyk7NtsMeiNhzDC-17" vertex="1">
                    <mxGeometry x="240" width="80" height="33" as="geometry">
                        <mxRectangle width="80" height="33" as="alternateBounds"/>
                    </mxGeometry>
                </mxCell>
                <mxCell id="NWYfTQyk7NtsMeiNhzDC-25" value="新增加" style="shape=partialRectangle;html=1;whiteSpace=wrap;connectable=0;strokeColor=inherit;overflow=hidden;fillColor=none;top=0;left=0;bottom=0;right=0;pointerEvents=1;" parent="NWYfTQyk7NtsMeiNhzDC-17" vertex="1">
                    <mxGeometry x="320" width="80" height="33" as="geometry">
                        <mxRectangle width="80" height="33" as="alternateBounds"/>
                    </mxGeometry>
                </mxCell>
                <mxCell id="NWYfTQyk7NtsMeiNhzDC-30" style="shape=tableRow;horizontal=0;startSize=0;swimlaneHead=0;swimlaneBody=0;strokeColor=inherit;top=0;left=0;bottom=0;right=0;collapsible=0;dropTarget=0;fillColor=none;points=[[0,0.5],[1,0.5]];portConstraint=eastwest;" parent="NWYfTQyk7NtsMeiNhzDC-1" vertex="1">
                    <mxGeometry y="133" width="400" height="34" as="geometry"/>
                </mxCell>
                <mxCell id="NWYfTQyk7NtsMeiNhzDC-31" value="251004" style="shape=partialRectangle;html=1;whiteSpace=wrap;connectable=0;strokeColor=inherit;overflow=hidden;fillColor=none;top=0;left=0;bottom=0;right=0;pointerEvents=1;" parent="NWYfTQyk7NtsMeiNhzDC-30" vertex="1">
                    <mxGeometry width="80" height="34" as="geometry">
                        <mxRectangle width="80" height="34" as="alternateBounds"/>
                    </mxGeometry>
                </mxCell>
                <mxCell id="NWYfTQyk7NtsMeiNhzDC-32" value="&lt;span style=&quot;color: rgb(0, 0, 0);&quot;&gt;兑换礼物&lt;/span&gt;" style="shape=partialRectangle;html=1;whiteSpace=wrap;connectable=0;strokeColor=inherit;overflow=hidden;fillColor=none;top=0;left=0;bottom=0;right=0;pointerEvents=1;" parent="NWYfTQyk7NtsMeiNhzDC-30" vertex="1">
                    <mxGeometry x="80" width="80" height="34" as="geometry">
                        <mxRectangle width="80" height="34" as="alternateBounds"/>
                    </mxGeometry>
                </mxCell>
                <mxCell id="NWYfTQyk7NtsMeiNhzDC-33" value="&lt;span style=&quot;color: rgb(0, 0, 0);&quot;&gt;张三&lt;/span&gt;" style="shape=partialRectangle;html=1;whiteSpace=wrap;connectable=0;strokeColor=inherit;overflow=hidden;fillColor=none;top=0;left=0;bottom=0;right=0;pointerEvents=1;" parent="NWYfTQyk7NtsMeiNhzDC-30" vertex="1">
                    <mxGeometry x="160" width="80" height="34" as="geometry">
                        <mxRectangle width="80" height="34" as="alternateBounds"/>
                    </mxGeometry>
                </mxCell>
                <mxCell id="NWYfTQyk7NtsMeiNhzDC-34" value="&lt;span style=&quot;color: rgb(0, 0, 0);&quot;&gt;-200&lt;/span&gt;&lt;br&gt;&lt;span style=&quot;color: rgb(0, 0, 0);&quot;&gt;+50&lt;/span&gt;" style="shape=partialRectangle;html=1;whiteSpace=wrap;connectable=0;strokeColor=inherit;overflow=hidden;fillColor=none;top=0;left=0;bottom=0;right=0;pointerEvents=1;" parent="NWYfTQyk7NtsMeiNhzDC-30" vertex="1">
                    <mxGeometry x="240" width="80" height="34" as="geometry">
                        <mxRectangle width="80" height="34" as="alternateBounds"/>
                    </mxGeometry>
                </mxCell>
                <mxCell id="NWYfTQyk7NtsMeiNhzDC-35" value="新找零" style="shape=partialRectangle;html=1;whiteSpace=wrap;connectable=0;strokeColor=inherit;overflow=hidden;fillColor=none;top=0;left=0;bottom=0;right=0;pointerEvents=1;" parent="NWYfTQyk7NtsMeiNhzDC-30" vertex="1">
                    <mxGeometry x="320" width="80" height="34" as="geometry">
                        <mxRectangle width="80" height="34" as="alternateBounds"/>
                    </mxGeometry>
                </mxCell>
                <mxCell id="T4pUqP8bccL-iyyCq1eO-3" style="shape=tableRow;horizontal=0;startSize=0;swimlaneHead=0;swimlaneBody=0;strokeColor=inherit;top=0;left=0;bottom=0;right=0;collapsible=0;dropTarget=0;fillColor=none;points=[[0,0.5],[1,0.5]];portConstraint=eastwest;" vertex="1" parent="NWYfTQyk7NtsMeiNhzDC-1">
                    <mxGeometry y="167" width="400" height="33" as="geometry"/>
                </mxCell>
                <mxCell id="T4pUqP8bccL-iyyCq1eO-4" value="..." style="shape=partialRectangle;html=1;whiteSpace=wrap;connectable=0;strokeColor=inherit;overflow=hidden;fillColor=none;top=0;left=0;bottom=0;right=0;pointerEvents=1;" vertex="1" parent="T4pUqP8bccL-iyyCq1eO-3">
                    <mxGeometry width="80" height="33" as="geometry">
                        <mxRectangle width="80" height="33" as="alternateBounds"/>
                    </mxGeometry>
                </mxCell>
                <mxCell id="T4pUqP8bccL-iyyCq1eO-5" value="..." style="shape=partialRectangle;html=1;whiteSpace=wrap;connectable=0;strokeColor=inherit;overflow=hidden;fillColor=none;top=0;left=0;bottom=0;right=0;pointerEvents=1;" vertex="1" parent="T4pUqP8bccL-iyyCq1eO-3">
                    <mxGeometry x="80" width="80" height="33" as="geometry">
                        <mxRectangle width="80" height="33" as="alternateBounds"/>
                    </mxGeometry>
                </mxCell>
                <mxCell id="T4pUqP8bccL-iyyCq1eO-6" value="..." style="shape=partialRectangle;html=1;whiteSpace=wrap;connectable=0;strokeColor=inherit;overflow=hidden;fillColor=none;top=0;left=0;bottom=0;right=0;pointerEvents=1;" vertex="1" parent="T4pUqP8bccL-iyyCq1eO-3">
                    <mxGeometry x="160" width="80" height="33" as="geometry">
                        <mxRectangle width="80" height="33" as="alternateBounds"/>
                    </mxGeometry>
                </mxCell>
                <mxCell id="T4pUqP8bccL-iyyCq1eO-7" value="..." style="shape=partialRectangle;html=1;whiteSpace=wrap;connectable=0;strokeColor=inherit;overflow=hidden;fillColor=none;top=0;left=0;bottom=0;right=0;pointerEvents=1;" vertex="1" parent="T4pUqP8bccL-iyyCq1eO-3">
                    <mxGeometry x="240" width="80" height="33" as="geometry">
                        <mxRectangle width="80" height="33" as="alternateBounds"/>
                    </mxGeometry>
                </mxCell>
                <mxCell id="T4pUqP8bccL-iyyCq1eO-8" value="..." style="shape=partialRectangle;html=1;whiteSpace=wrap;connectable=0;strokeColor=inherit;overflow=hidden;fillColor=none;top=0;left=0;bottom=0;right=0;pointerEvents=1;" vertex="1" parent="T4pUqP8bccL-iyyCq1eO-3">
                    <mxGeometry x="320" width="80" height="33" as="geometry">
                        <mxRectangle width="80" height="33" as="alternateBounds"/>
                    </mxGeometry>
                </mxCell>
                <mxCell id="NWYfTQyk7NtsMeiNhzDC-52" style="edgeStyle=none;html=1;exitX=0;exitY=0.5;exitDx=0;exitDy=0;entryX=0;entryY=0.5;entryDx=0;entryDy=0;" parent="1" source="NWYfTQyk7NtsMeiNhzDC-46" target="NWYfTQyk7NtsMeiNhzDC-50" edge="1">
                    <mxGeometry relative="1" as="geometry">
                        <Array as="points">
                            <mxPoint x="250" y="210"/>
                            <mxPoint x="250" y="310"/>
                        </Array>
                    </mxGeometry>
                </mxCell>
                <mxCell id="NWYfTQyk7NtsMeiNhzDC-46" value="" style="rounded=0;whiteSpace=wrap;html=1;fillColor=#000000;" parent="1" vertex="1">
                    <mxGeometry x="275" y="205" width="10" height="10" as="geometry"/>
                </mxCell>
                <mxCell id="NWYfTQyk7NtsMeiNhzDC-50" value="" style="ellipse;whiteSpace=wrap;html=1;aspect=fixed;fillColor=#000000;" parent="1" vertex="1">
                    <mxGeometry x="275" y="306" width="10" height="10" as="geometry"/>
                </mxCell>
                <mxCell id="NWYfTQyk7NtsMeiNhzDC-53" style="edgeStyle=none;html=1;exitX=0;exitY=0.5;exitDx=0;exitDy=0;entryX=0;entryY=0.5;entryDx=0;entryDy=0;" parent="1" source="NWYfTQyk7NtsMeiNhzDC-48" target="NWYfTQyk7NtsMeiNhzDC-50" edge="1">
                    <mxGeometry relative="1" as="geometry">
                        <Array as="points">
                            <mxPoint x="250" y="243"/>
                            <mxPoint x="250" y="310"/>
                        </Array>
                    </mxGeometry>
                </mxCell>
                <mxCell id="T4pUqP8bccL-iyyCq1eO-1" value="兑换" style="rounded=1;whiteSpace=wrap;html=1;" vertex="1" parent="1">
                    <mxGeometry x="229" y="257" width="40" height="40" as="geometry"/>
                </mxCell>
            </root>
        </mxGraphModel>
    </diagram>
</mxfile>